<mxfile host="app.diagrams.net" modified="2021-08-12T03:00:35.892Z" agent="5.0 (Windows NT 10.0; Win64; x64) AppleWebKit/537.36 (KHTML, like Gecko) Chrome/92.0.4515.131 Safari/537.36" etag="36BGhOHi0FajgfTm3grx" version="14.9.6" type="github">
  <diagram id="ueyTAK3B8b9JWY4J8gmi" name="页-1">
    <mxGraphModel dx="4063" dy="2291" grid="1" gridSize="10" guides="1" tooltips="1" connect="1" arrows="1" fold="1" page="1" pageScale="1" pageWidth="827" pageHeight="1169" math="0" shadow="0">
      <root>
        <mxCell id="0" />
        <mxCell id="1" parent="0" />
        <mxCell id="2Ufyp_WOwzEZSYyZZ3k4-240" style="edgeStyle=orthogonalEdgeStyle;rounded=0;orthogonalLoop=1;jettySize=auto;html=1;entryX=0.516;entryY=-0.002;entryDx=0;entryDy=0;entryPerimeter=0;" edge="1" parent="1" source="2Ufyp_WOwzEZSYyZZ3k4-91" target="2Ufyp_WOwzEZSYyZZ3k4-94">
          <mxGeometry relative="1" as="geometry" />
        </mxCell>
        <mxCell id="2Ufyp_WOwzEZSYyZZ3k4-244" style="edgeStyle=orthogonalEdgeStyle;rounded=0;orthogonalLoop=1;jettySize=auto;html=1;" edge="1" parent="1" source="2Ufyp_WOwzEZSYyZZ3k4-242" target="2Ufyp_WOwzEZSYyZZ3k4-124">
          <mxGeometry relative="1" as="geometry" />
        </mxCell>
        <mxCell id="2Ufyp_WOwzEZSYyZZ3k4-242" value="切换代理" style="rounded=0;whiteSpace=wrap;html=1;shadow=1;strokeColor=#404040;fillColor=#f0f0f0;gradientColor=#ffffff;gradientDirection=north;spacingTop=-1;spacingLeft=-1;spacingBottom=-1;spacingRight=-1;" vertex="1" parent="1">
          <mxGeometry x="820" y="1800" width="120" height="60" as="geometry" />
        </mxCell>
        <mxCell id="2Ufyp_WOwzEZSYyZZ3k4-250" style="edgeStyle=orthogonalEdgeStyle;rounded=0;orthogonalLoop=1;jettySize=auto;html=1;entryX=0;entryY=0.5;entryDx=0;entryDy=0;entryPerimeter=0;" edge="1" parent="1" source="2Ufyp_WOwzEZSYyZZ3k4-246" target="2Ufyp_WOwzEZSYyZZ3k4-150">
          <mxGeometry relative="1" as="geometry" />
        </mxCell>
        <mxCell id="2Ufyp_WOwzEZSYyZZ3k4-251" value="是" style="edgeLabel;html=1;align=center;verticalAlign=middle;resizable=0;points=[];" vertex="1" connectable="0" parent="2Ufyp_WOwzEZSYyZZ3k4-250">
          <mxGeometry x="-0.1833" relative="1" as="geometry">
            <mxPoint as="offset" />
          </mxGeometry>
        </mxCell>
        <mxCell id="2Ufyp_WOwzEZSYyZZ3k4-252" style="edgeStyle=orthogonalEdgeStyle;rounded=0;orthogonalLoop=1;jettySize=auto;html=1;entryX=0;entryY=0.5;entryDx=0;entryDy=0;entryPerimeter=0;" edge="1" parent="1" source="2Ufyp_WOwzEZSYyZZ3k4-246" target="2Ufyp_WOwzEZSYyZZ3k4-129">
          <mxGeometry relative="1" as="geometry">
            <Array as="points">
              <mxPoint x="570" y="1940" />
            </Array>
          </mxGeometry>
        </mxCell>
        <mxCell id="2Ufyp_WOwzEZSYyZZ3k4-253" value="否" style="edgeLabel;html=1;align=center;verticalAlign=middle;resizable=0;points=[];" vertex="1" connectable="0" parent="2Ufyp_WOwzEZSYyZZ3k4-252">
          <mxGeometry x="-0.7825" relative="1" as="geometry">
            <mxPoint as="offset" />
          </mxGeometry>
        </mxCell>
        <mxCell id="2Ufyp_WOwzEZSYyZZ3k4-246" value="是否有上传代理" style="rhombus;whiteSpace=wrap;html=1;" vertex="1" parent="1">
          <mxGeometry x="540" y="1670" width="60" height="80" as="geometry" />
        </mxCell>
        <mxCell id="2Ufyp_WOwzEZSYyZZ3k4-249" style="edgeStyle=orthogonalEdgeStyle;rounded=0;orthogonalLoop=1;jettySize=auto;html=1;entryX=0;entryY=0.5;entryDx=0;entryDy=0;" edge="1" parent="1" source="2Ufyp_WOwzEZSYyZZ3k4-122" target="2Ufyp_WOwzEZSYyZZ3k4-246">
          <mxGeometry relative="1" as="geometry" />
        </mxCell>
        <mxCell id="2Ufyp_WOwzEZSYyZZ3k4-1" value="流程图" parent="0" />
        <mxCell id="2Ufyp_WOwzEZSYyZZ3k4-24" value="连接线" parent="0" />
        <mxCell id="2Ufyp_WOwzEZSYyZZ3k4-64" value="流程图" parent="0" />
        <mxCell id="2Ufyp_WOwzEZSYyZZ3k4-65" value="&lt;font style=&quot;font-size: 11px ; font-family: &amp;#34;calibri&amp;#34; ; color: #000000 ; direction: ltr ; letter-spacing: 0px ; line-height: 120% ; opacity: 1&quot;&gt;初始化上传模式&lt;br&gt;&lt;/font&gt;" style="verticalAlign=middle;align=center;vsdxID=1;fillColor=#f0f0f0;gradientColor=#ffffff;gradientDirection=north;shape=stencil(tVLLDsIgEPwajiQIMfFe638Qu22JCM2Ctv69kK0Rm9qDibeZndkXC1NV6PUATIoQ0V9gNE3smToyKY3rAU1MiKmaqar1CB36m2uIDzo7M7r6e64wUZ4UOUWKB9GdIH4irzWu8B42vRrPScNFXZzN+5mvl3qJXE8mcPRRR+Pdh2Y1dsBTE95a3c0TkBRGgKEIb6wg1/r+ssCXd/vLCgm8z9caa+n6pb48dwrRV1H1Ew==);strokeColor=#404040;shadow=1;spacingTop=-1;spacingBottom=-1;spacingLeft=-1;spacingRight=-1;labelBackgroundColor=none;rounded=0;html=1;whiteSpace=wrap;" vertex="1" parent="2Ufyp_WOwzEZSYyZZ3k4-64">
          <mxGeometry x="111" y="60" width="100" height="40" as="geometry" />
        </mxCell>
        <mxCell id="2Ufyp_WOwzEZSYyZZ3k4-66" value="&lt;font style=&quot;font-size:11px;font-family:Calibri;color:#000000;direction:ltr;letter-spacing:0px;line-height:120%;opacity:1&quot;&gt;用户点击上传附件选择文件&lt;br/&gt;&lt;/font&gt;" style="verticalAlign=middle;align=center;vsdxID=2;fillColor=#f0f0f0;gradientColor=#ffffff;gradientDirection=north;shape=stencil(nZBLDoAgDERP0z3SIyjew0SURgSD+Lu9kMZoXLhwN9O+tukAlrNpJg1SzDH4QW/URgNYgZTkjA4UkwJUgGXng+6DX1zLfmoymdXo17xh5zmRJ6Q42BWCfc2oJfdAr+Yv+AP9Cb7OJ3H/2JG1HNGz/84klThPVCc=);strokeColor=#404040;shadow=1;spacingTop=-1;spacingBottom=-1;spacingLeft=-1;spacingRight=-1;labelBackgroundColor=none;rounded=0;html=1;whiteSpace=wrap;" vertex="1" parent="2Ufyp_WOwzEZSYyZZ3k4-64">
          <mxGeometry x="111" y="160" width="100" height="60" as="geometry" />
        </mxCell>
        <mxCell id="2Ufyp_WOwzEZSYyZZ3k4-67" style="vsdxID=4;fillColor=#f0f0f0;gradientColor=#ffffff;gradientDirection=north;shape=stencil(UzV2Ls5ILEhVNTIoLinKz04tz0wpyVA1dlE1MsrMy0gtyiwBslSNXVWNndPyi1LTi/JL81Ig/IJEkEoQKze/DGRCBUSfAUiHkUElhGcK4bpBVOZk5iGpNEVVikeloQHZpsK0YlWLz1QgA+HFtMycHEgIIcujBwlQCBKcxq4A);strokeColor=#404040;shadow=1;spacingTop=-1;spacingBottom=-1;spacingLeft=-1;spacingRight=-1;labelBackgroundColor=none;rounded=0;html=1;whiteSpace=wrap;" vertex="1" parent="2Ufyp_WOwzEZSYyZZ3k4-64">
          <mxGeometry x="111" y="280" width="100" height="60" as="geometry" />
        </mxCell>
        <mxCell id="2Ufyp_WOwzEZSYyZZ3k4-68" value="&lt;font style=&quot;font-size:11px;font-family:Calibri;color:#000000;direction:ltr;letter-spacing:0px;line-height:120%;opacity:1&quot;&gt;是否存在选择的文件&lt;br/&gt;&lt;/font&gt;" style="text;vsdxID=4;fillColor=none;gradientColor=none;gradientDirection=north;strokeColor=none;shadow=1;spacingTop=-1;spacingBottom=-1;spacingLeft=-1;spacingRight=-1;labelBackgroundColor=none;rounded=0;html=1;whiteSpace=wrap;verticalAlign=middle;align=center;;html=1;" vertex="1" parent="2Ufyp_WOwzEZSYyZZ3k4-67">
          <mxGeometry x="8.33" y="7.5" width="83.33" height="45" as="geometry" />
        </mxCell>
        <mxCell id="2Ufyp_WOwzEZSYyZZ3k4-69" value="&lt;font style=&quot;font-size:11px;font-family:Calibri;color:#000000;direction:ltr;letter-spacing:0px;line-height:120%;opacity:1&quot;&gt;流程结束&lt;br/&gt;&lt;/font&gt;" style="verticalAlign=middle;align=center;vsdxID=6;fillColor=#f0f0f0;gradientColor=#ffffff;gradientDirection=north;shape=stencil(tVLLDsIgEPwajiQIMfFe638Qu22JCM2Ctv69kK0Rm9qDibeZndkXC1NV6PUATIoQ0V9gNE3smToyKY3rAU1MiKmaqar1CB36m2uIDzo7M7r6e64wUZ4UOUWKB9GdIH4irzWu8B42vRrPScNFXZzN+5mvl3qJXE8mcPRRR+Pdh2Y1dsBTE95a3c0TkBRGgKEIb6wg1/r+ssCXd/vLCgm8z9caa+n6pb48dwrRV1H1Ew==);strokeColor=#404040;shadow=1;spacingTop=-1;spacingBottom=-1;spacingLeft=-1;spacingRight=-1;labelBackgroundColor=none;rounded=0;html=1;whiteSpace=wrap;" vertex="1" parent="2Ufyp_WOwzEZSYyZZ3k4-64">
          <mxGeometry x="271" y="290" width="100" height="40" as="geometry" />
        </mxCell>
        <mxCell id="2Ufyp_WOwzEZSYyZZ3k4-70" value="&lt;font style=&quot;font-size:11px;font-family:Calibri;color:#000000;direction:ltr;letter-spacing:0px;line-height:120%;opacity:1&quot;&gt;选择文件，内部文件全部转为统一的文件对象&lt;br/&gt;&lt;/font&gt;" style="verticalAlign=middle;align=center;vsdxID=8;fillColor=#f0f0f0;gradientColor=#ffffff;gradientDirection=north;shape=stencil(nZBLDoAgDERP0z3SIyjew0SURgSD+Lu9kMZoXLhwN9O+tukAlrNpJg1SzDH4QW/URgNYgZTkjA4UkwJUgGXng+6DX1zLfmoymdXo17xh5zmRJ6Q42BWCfc2oJfdAr+Yv+AP9Cb7OJ3H/2JG1HNGz/84klThPVCc=);strokeColor=#404040;shadow=1;spacingTop=-1;spacingBottom=-1;spacingLeft=-1;spacingRight=-1;labelBackgroundColor=none;rounded=0;html=1;whiteSpace=wrap;" vertex="1" parent="2Ufyp_WOwzEZSYyZZ3k4-64">
          <mxGeometry x="111" y="400" width="100" height="60" as="geometry" />
        </mxCell>
        <mxCell id="2Ufyp_WOwzEZSYyZZ3k4-71" value="&lt;font style=&quot;font-size:11px;font-family:Calibri;color:#000000;direction:ltr;letter-spacing:0px;line-height:120%;opacity:1&quot;&gt;文件过滤&lt;br/&gt;&lt;/font&gt;" style="verticalAlign=middle;align=center;vsdxID=10;fillColor=#f0f0f0;gradientColor=#ffffff;gradientDirection=north;shape=stencil(nZBLDoAgDERP0z3SIyjew0SURgSD+Lu9kMZoXLhwN9O+tukAlrNpJg1SzDH4QW/URgNYgZTkjA4UkwJUgGXng+6DX1zLfmoymdXo17xh5zmRJ6Q42BWCfc2oJfdAr+Yv+AP9Cb7OJ3H/2JG1HNGz/84klThPVCc=);strokeColor=#404040;shadow=1;spacingTop=-1;spacingBottom=-1;spacingLeft=-1;spacingRight=-1;labelBackgroundColor=none;rounded=0;html=1;whiteSpace=wrap;" vertex="1" parent="2Ufyp_WOwzEZSYyZZ3k4-64">
          <mxGeometry x="111" y="520" width="100" height="60" as="geometry" />
        </mxCell>
        <mxCell id="2Ufyp_WOwzEZSYyZZ3k4-72" style="vsdxID=12;fillColor=#f0f0f0;gradientColor=#ffffff;gradientDirection=north;shape=stencil(UzV2Ls5ILEhVNTIoLinKz04tz0wpyVA1dlE1MsrMy0gtyiwBslSNXVWNndPyi1LTi/JL81Ig/IJEkEoQKze/DGRCBUSfAUiHkUElhGcK4bpBVOZk5iGpNEVVikeloQHZpsK0YlWLz1QgA+HFtMycHEgIIcujBwlQCBKcxq4A);strokeColor=#404040;shadow=1;spacingTop=-1;spacingBottom=-1;spacingLeft=-1;spacingRight=-1;labelBackgroundColor=none;rounded=0;html=1;whiteSpace=wrap;" vertex="1" parent="2Ufyp_WOwzEZSYyZZ3k4-64">
          <mxGeometry x="111" y="628" width="100" height="84" as="geometry" />
        </mxCell>
        <mxCell id="2Ufyp_WOwzEZSYyZZ3k4-73" value="&lt;font style=&quot;font-size:11px;font-family:Calibri;color:#000000;direction:ltr;letter-spacing:0px;line-height:120%;opacity:1&quot;&gt;内联附件大小是否超过了普通附件大小限制&lt;br/&gt;&lt;/font&gt;" style="text;vsdxID=12;fillColor=none;gradientColor=none;gradientDirection=north;strokeColor=none;shadow=1;spacingTop=-1;spacingBottom=-1;spacingLeft=-1;spacingRight=-1;labelBackgroundColor=none;rounded=0;html=1;whiteSpace=wrap;verticalAlign=middle;align=center;;html=1;" vertex="1" parent="2Ufyp_WOwzEZSYyZZ3k4-72">
          <mxGeometry x="8.33" y="10.5" width="83.33" height="63" as="geometry" />
        </mxCell>
        <mxCell id="2Ufyp_WOwzEZSYyZZ3k4-74" value="&lt;font style=&quot;font-size:11px;font-family:Calibri;color:#000000;direction:ltr;letter-spacing:0px;line-height:120%;opacity:1&quot;&gt;提示，流程结束&lt;br/&gt;&lt;/font&gt;" style="verticalAlign=middle;align=center;vsdxID=14;fillColor=#f0f0f0;gradientColor=#ffffff;gradientDirection=north;shape=stencil(tVLLDsIgEPwajiQIMfFe638Qu22JCM2Ctv69kK0Rm9qDibeZndkXC1NV6PUATIoQ0V9gNE3smToyKY3rAU1MiKmaqar1CB36m2uIDzo7M7r6e64wUZ4UOUWKB9GdIH4irzWu8B42vRrPScNFXZzN+5mvl3qJXE8mcPRRR+Pdh2Y1dsBTE95a3c0TkBRGgKEIb6wg1/r+ssCXd/vLCgm8z9caa+n6pb48dwrRV1H1Ew==);strokeColor=#404040;shadow=1;spacingTop=-1;spacingBottom=-1;spacingLeft=-1;spacingRight=-1;labelBackgroundColor=none;rounded=0;html=1;whiteSpace=wrap;" vertex="1" parent="2Ufyp_WOwzEZSYyZZ3k4-64">
          <mxGeometry x="271" y="650" width="100" height="40" as="geometry" />
        </mxCell>
        <mxCell id="2Ufyp_WOwzEZSYyZZ3k4-75" style="vsdxID=16;fillColor=#f0f0f0;gradientColor=#ffffff;gradientDirection=north;shape=stencil(UzV2Ls5ILEhVNTIoLinKz04tz0wpyVA1dlE1MsrMy0gtyiwBslSNXVWNndPyi1LTi/JL81Ig/IJEkEoQKze/DGRCBUSfAUiHkUElhGcK4bpBVOZk5iGpNEVVikeloQHZpsK0YlWLz1QgA+HFtMycHEgIIcujBwlQCBKcxq4A);strokeColor=#404040;shadow=1;spacingTop=-1;spacingBottom=-1;spacingLeft=-1;spacingRight=-1;labelBackgroundColor=none;rounded=0;html=1;whiteSpace=wrap;" vertex="1" parent="2Ufyp_WOwzEZSYyZZ3k4-64">
          <mxGeometry x="111" y="770" width="100" height="64" as="geometry" />
        </mxCell>
        <mxCell id="2Ufyp_WOwzEZSYyZZ3k4-76" value="&lt;font style=&quot;font-size:11px;font-family:Calibri;color:#000000;direction:ltr;letter-spacing:0px;line-height:120%;opacity:1&quot;&gt;需要移动附件，从普通文件移至云附件&lt;br/&gt;&lt;/font&gt;" style="text;vsdxID=16;fillColor=none;gradientColor=none;gradientDirection=north;strokeColor=none;shadow=1;spacingTop=-1;spacingBottom=-1;spacingLeft=-1;spacingRight=-1;labelBackgroundColor=none;rounded=0;html=1;whiteSpace=wrap;verticalAlign=middle;align=center;;html=1;" vertex="1" parent="2Ufyp_WOwzEZSYyZZ3k4-75">
          <mxGeometry x="8.33" y="8" width="83.33" height="48" as="geometry" />
        </mxCell>
        <mxCell id="2Ufyp_WOwzEZSYyZZ3k4-77" style="vsdxID=18;fillColor=#f0f0f0;gradientColor=#ffffff;gradientDirection=north;shape=stencil(UzV2Ls5ILEhVNTIoLinKz04tz0wpyVA1dlE1MsrMy0gtyiwBslSNXVWNndPyi1LTi/JL81Ig/IJEkEoQKze/DGRCBUSfAUiHkUElhGcK4bpBVOZk5iGpNEVVikeloQHZpsK0YlWLz1QgA+HFtMycHEgIIcujBwlQCBKcxq4A);strokeColor=#404040;shadow=1;spacingTop=-1;spacingBottom=-1;spacingLeft=-1;spacingRight=-1;labelBackgroundColor=none;rounded=0;html=1;whiteSpace=wrap;" vertex="1" parent="2Ufyp_WOwzEZSYyZZ3k4-64">
          <mxGeometry x="111" y="894" width="100" height="60" as="geometry" />
        </mxCell>
        <mxCell id="2Ufyp_WOwzEZSYyZZ3k4-78" value="&lt;font style=&quot;font-size:11px;font-family:Calibri;color:#000000;direction:ltr;letter-spacing:0px;line-height:120%;opacity:1&quot;&gt;是否已经触发云附件&lt;br/&gt;&lt;/font&gt;" style="text;vsdxID=18;fillColor=none;gradientColor=none;gradientDirection=north;strokeColor=none;shadow=1;spacingTop=-1;spacingBottom=-1;spacingLeft=-1;spacingRight=-1;labelBackgroundColor=none;rounded=0;html=1;whiteSpace=wrap;verticalAlign=middle;align=center;;html=1;" vertex="1" parent="2Ufyp_WOwzEZSYyZZ3k4-77">
          <mxGeometry x="8.33" y="7.5" width="83.33" height="45" as="geometry" />
        </mxCell>
        <mxCell id="2Ufyp_WOwzEZSYyZZ3k4-80" style="vsdxID=21;fillColor=#f0f0f0;gradientColor=#ffffff;gradientDirection=north;shape=stencil(UzV2Ls5ILEhVNTIoLinKz04tz0wpyVA1dlE1MsrMy0gtyiwBslSNXVWNndPyi1LTi/JL81Ig/IJEkEoQKze/DGRCBUSfAUiHkUElhGcK4bpBVOZk5iGpNEVVikeloQHZpsK0YlWLz1QgA+HFtMycHEgIIcujBwlQCBKcxq4A);strokeColor=#404040;shadow=1;spacingTop=-1;spacingBottom=-1;spacingLeft=-1;spacingRight=-1;labelBackgroundColor=none;rounded=0;html=1;whiteSpace=wrap;" vertex="1" parent="2Ufyp_WOwzEZSYyZZ3k4-64">
          <mxGeometry x="350" y="882" width="100" height="84" as="geometry" />
        </mxCell>
        <mxCell id="2Ufyp_WOwzEZSYyZZ3k4-81" value="&lt;p style=&quot;align:center;margin-left:0;margin-right:0;margin-top:0px;margin-bottom:0px;text-indent:0;valign:middle;direction:ltr;&quot;&gt;&lt;font style=&quot;font-size:11px;font-family:Calibri;color:#000000;direction:ltr;letter-spacing:0px;line-height:120%;opacity:1&quot;&gt;非内联附件总量超过20&lt;/font&gt;&lt;font style=&quot;font-size:11px;font-family:Calibri;color:#000000;direction:ltr;letter-spacing:0px;line-height:120%;opacity:1&quot;&gt;M &amp;amp;&amp;amp; &lt;/font&gt;&lt;font style=&quot;font-size:11px;font-family:Calibri;color:#000000;direction:ltr;letter-spacing:0px;line-height:120%;opacity:1&quot;&gt;总量未超过上限 &amp;amp;&amp;amp; 未提示&lt;/font&gt;&lt;font style=&quot;font-size:11px;font-family:Calibri;color:#000000;direction:ltr;letter-spacing:0px;line-height:120%;opacity:1&quot;&gt;&lt;br/&gt;&lt;/font&gt;&lt;/p&gt;" style="text;vsdxID=21;fillColor=none;gradientColor=none;gradientDirection=north;strokeColor=none;shadow=1;spacingTop=-1;spacingBottom=-1;spacingLeft=-1;spacingRight=-1;labelBackgroundColor=none;rounded=0;html=1;whiteSpace=wrap;verticalAlign=middle;align=center;;html=1;" vertex="1" parent="2Ufyp_WOwzEZSYyZZ3k4-80">
          <mxGeometry x="8.33" y="10.5" width="83.33" height="63" as="geometry" />
        </mxCell>
        <mxCell id="2Ufyp_WOwzEZSYyZZ3k4-82" style="vsdxID=24;fillColor=#f0f0f0;gradientColor=#ffffff;gradientDirection=north;shape=stencil(UzV2Ls5ILEhVNTIoLinKz04tz0wpyVA1dlE1MsrMy0gtyiwBslSNXVWNndPyi1LTi/JL81Ig/IJEkEoQKze/DGRCBUSfAUiHkUElhGcK4bpBVOZk5iGpNEVVikeloQHZpsK0YlWLz1QgA+HFtMycHEgIIcujBwlQCBKcxq4A);strokeColor=#404040;shadow=1;spacingTop=-1;spacingBottom=-1;spacingLeft=-1;spacingRight=-1;labelBackgroundColor=none;rounded=0;html=1;whiteSpace=wrap;" vertex="1" parent="2Ufyp_WOwzEZSYyZZ3k4-64">
          <mxGeometry x="462" y="1026" width="100" height="60" as="geometry" />
        </mxCell>
        <mxCell id="2Ufyp_WOwzEZSYyZZ3k4-83" value="&lt;font style=&quot;font-size:11px;font-family:Calibri;color:#000000;direction:ltr;letter-spacing:0px;line-height:120%;opacity:1&quot;&gt;切换为云附件&lt;br/&gt;&lt;/font&gt;" style="text;vsdxID=24;fillColor=none;gradientColor=none;gradientDirection=north;strokeColor=none;shadow=1;spacingTop=-1;spacingBottom=-1;spacingLeft=-1;spacingRight=-1;labelBackgroundColor=none;rounded=0;html=1;whiteSpace=wrap;verticalAlign=middle;align=center;;html=1;" vertex="1" parent="2Ufyp_WOwzEZSYyZZ3k4-82">
          <mxGeometry x="8.33" y="7.5" width="83.33" height="45" as="geometry" />
        </mxCell>
        <mxCell id="2Ufyp_WOwzEZSYyZZ3k4-84" style="vsdxID=28;fillColor=#f0f0f0;gradientColor=#ffffff;gradientDirection=north;shape=stencil(UzV2Ls5ILEhVNTIoLinKz04tz0wpyVA1dlE1MsrMy0gtyiwBslSNXVWNndPyi1LTi/JL81Ig/IJEkEoQKze/DGRCBUSfAUiHkUElhGcK4bpBVOZk5iGpNEVVikeloQHZpsK0YlWLz1QgA+HFtMycHEgIIcujBwlQCBKcxq4A);strokeColor=#404040;shadow=1;spacingTop=-1;spacingBottom=-1;spacingLeft=-1;spacingRight=-1;labelBackgroundColor=none;rounded=0;html=1;whiteSpace=wrap;" vertex="1" parent="2Ufyp_WOwzEZSYyZZ3k4-64">
          <mxGeometry x="111" y="1026" width="100" height="60" as="geometry" />
        </mxCell>
        <mxCell id="2Ufyp_WOwzEZSYyZZ3k4-85" value="&lt;font style=&quot;font-size:11px;font-family:Calibri;color:#000000;direction:ltr;letter-spacing:0px;line-height:120%;opacity:1&quot;&gt;全部通过检查&lt;br/&gt;&lt;/font&gt;" style="text;vsdxID=28;fillColor=none;gradientColor=none;gradientDirection=north;strokeColor=none;shadow=1;spacingTop=-1;spacingBottom=-1;spacingLeft=-1;spacingRight=-1;labelBackgroundColor=none;rounded=0;html=1;whiteSpace=wrap;verticalAlign=middle;align=center;;html=1;" vertex="1" parent="2Ufyp_WOwzEZSYyZZ3k4-84">
          <mxGeometry x="8.33" y="7.5" width="83.33" height="45" as="geometry" />
        </mxCell>
        <mxCell id="2Ufyp_WOwzEZSYyZZ3k4-86" style="vsdxID=31;fillColor=#f0f0f0;gradientColor=#ffffff;gradientDirection=north;shape=stencil(UzV2Ls5ILEhVNTIoLinKz04tz0wpyVA1dlE1MsrMy0gtyiwBslSNXVWNndPyi1LTi/JL81Ig/IJEkEoQKze/DGRCBUSfAUiHkUElhGcK4bpBVOZk5iGpNEVVikeloQHZpsK0YlWLz1QgA+HFtMycHEgIIcujBwlQCBKcxq4A);strokeColor=#404040;shadow=1;spacingTop=-1;spacingBottom=-1;spacingLeft=-1;spacingRight=-1;labelBackgroundColor=none;rounded=0;html=1;whiteSpace=wrap;" vertex="1" parent="2Ufyp_WOwzEZSYyZZ3k4-64">
          <mxGeometry x="111" y="1146" width="100" height="60" as="geometry" />
        </mxCell>
        <mxCell id="2Ufyp_WOwzEZSYyZZ3k4-87" value="&lt;font style=&quot;font-size:11px;font-family:Calibri;color:#000000;direction:ltr;letter-spacing:0px;line-height:120%;opacity:1&quot;&gt;全部失败&lt;br/&gt;&lt;/font&gt;" style="text;vsdxID=31;fillColor=none;gradientColor=none;gradientDirection=north;strokeColor=none;shadow=1;spacingTop=-1;spacingBottom=-1;spacingLeft=-1;spacingRight=-1;labelBackgroundColor=none;rounded=0;html=1;whiteSpace=wrap;verticalAlign=middle;align=center;;html=1;" vertex="1" parent="2Ufyp_WOwzEZSYyZZ3k4-86">
          <mxGeometry x="8.33" y="7.5" width="83.33" height="45" as="geometry" />
        </mxCell>
        <mxCell id="2Ufyp_WOwzEZSYyZZ3k4-88" value="&lt;font style=&quot;font-size:11px;font-family:Calibri;color:#000000;direction:ltr;letter-spacing:0px;line-height:120%;opacity:1&quot;&gt;提示流程结束&lt;br/&gt;&lt;/font&gt;" style="verticalAlign=middle;align=center;vsdxID=33;fillColor=#f0f0f0;gradientColor=#ffffff;gradientDirection=north;shape=stencil(tVLLDsIgEPwajiQIMfFe638Qu22JCM2Ctv69kK0Rm9qDibeZndkXC1NV6PUATIoQ0V9gNE3smToyKY3rAU1MiKmaqar1CB36m2uIDzo7M7r6e64wUZ4UOUWKB9GdIH4irzWu8B42vRrPScNFXZzN+5mvl3qJXE8mcPRRR+Pdh2Y1dsBTE95a3c0TkBRGgKEIb6wg1/r+ssCXd/vLCgm8z9caa+n6pb48dwrRV1H1Ew==);strokeColor=#404040;shadow=1;spacingTop=-1;spacingBottom=-1;spacingLeft=-1;spacingRight=-1;labelBackgroundColor=none;rounded=0;html=1;whiteSpace=wrap;" vertex="1" parent="2Ufyp_WOwzEZSYyZZ3k4-64">
          <mxGeometry x="350" y="1156" width="100" height="40" as="geometry" />
        </mxCell>
        <mxCell id="2Ufyp_WOwzEZSYyZZ3k4-89" value="&lt;font style=&quot;font-size: 11px ; font-family: &amp;#34;calibri&amp;#34; ; color: #000000 ; direction: ltr ; letter-spacing: 0px ; line-height: 120% ; opacity: 1&quot;&gt;提示用户选择失败的附件列表&lt;br&gt;&lt;/font&gt;" style="verticalAlign=middle;align=center;vsdxID=35;fillColor=#f0f0f0;gradientColor=#ffffff;gradientDirection=north;shape=stencil(nZBLDoAgDERP0z3SIyjew0SURgSD+Lu9kMZoXLhwN9O+tukAlrNpJg1SzDH4QW/URgNYgZTkjA4UkwJUgGXng+6DX1zLfmoymdXo17xh5zmRJ6Q42BWCfc2oJfdAr+Yv+AP9Cb7OJ3H/2JG1HNGz/84klThPVCc=);strokeColor=#404040;shadow=1;spacingTop=-1;spacingBottom=-1;spacingLeft=-1;spacingRight=-1;labelBackgroundColor=none;rounded=0;html=1;whiteSpace=wrap;" vertex="1" parent="2Ufyp_WOwzEZSYyZZ3k4-64">
          <mxGeometry x="111" y="1266" width="100" height="60" as="geometry" />
        </mxCell>
        <mxCell id="2Ufyp_WOwzEZSYyZZ3k4-90" value="&lt;font style=&quot;font-size:11px;font-family:Calibri;color:#000000;direction:ltr;letter-spacing:0px;line-height:120%;opacity:1&quot;&gt;开始上传流程&lt;br/&gt;&lt;/font&gt;" style="verticalAlign=middle;align=center;vsdxID=37;fillColor=#f0f0f0;gradientColor=#ffffff;gradientDirection=north;shape=stencil(nZBLDoAgDERP0z3SIyjew0SURgSD+Lu9kMZoXLhwN9O+tukAlrNpJg1SzDH4QW/URgNYgZTkjA4UkwJUgGXng+6DX1zLfmoymdXo17xh5zmRJ6Q42BWCfc2oJfdAr+Yv+AP9Cb7OJ3H/2JG1HNGz/84klThPVCc=);strokeColor=#404040;shadow=1;spacingTop=-1;spacingBottom=-1;spacingLeft=-1;spacingRight=-1;labelBackgroundColor=none;rounded=0;html=1;whiteSpace=wrap;" vertex="1" parent="2Ufyp_WOwzEZSYyZZ3k4-64">
          <mxGeometry x="111" y="1426" width="100" height="60" as="geometry" />
        </mxCell>
        <mxCell id="2Ufyp_WOwzEZSYyZZ3k4-91" value="&lt;p style=&quot;margin-left: 0 ; margin-right: 0 ; margin-top: 0px ; margin-bottom: 0px ; text-indent: 0 ; direction: ltr&quot;&gt;&lt;font style=&quot;font-size: 11px ; font-family: &amp;#34;calibri&amp;#34; ; color: #000000 ; direction: ltr ; letter-spacing: 0px ; line-height: 120% ; opacity: 1&quot;&gt;写信附件自动上传&lt;br&gt;&lt;/font&gt;&lt;font style=&quot;font-size: 11px ; font-family: &amp;#34;calibri&amp;#34; ; color: #000000 ; direction: ltr ; letter-spacing: 0px ; line-height: 120% ; opacity: 1&quot;&gt;fileAutoUpload&lt;br&gt;&lt;/font&gt;&lt;/p&gt;" style="verticalAlign=middle;align=center;vsdxID=41;fillColor=#f0f0f0;gradientColor=#ffffff;gradientDirection=north;shape=stencil(nZBLDoAgDERP0z3SIyjew0SURgSD+Lu9kMZoXLhwN9O+tukAlrNpJg1SzDH4QW/URgNYgZTkjA4UkwJUgGXng+6DX1zLfmoymdXo17xh5zmRJ6Q42BWCfc2oJfdAr+Yv+AP9Cb7OJ3H/2JG1HNGz/84klThPVCc=);strokeColor=#404040;shadow=1;spacingTop=-1;spacingBottom=-1;spacingLeft=-1;spacingRight=-1;labelBackgroundColor=none;rounded=0;html=1;whiteSpace=wrap;" vertex="1" parent="2Ufyp_WOwzEZSYyZZ3k4-64">
          <mxGeometry x="111" y="1546" width="100" height="60" as="geometry" />
        </mxCell>
        <mxCell id="2Ufyp_WOwzEZSYyZZ3k4-94" value="&lt;p style=&quot;align:center;margin-left:0;margin-right:0;margin-top:0px;margin-bottom:0px;text-indent:0;valign:middle;direction:ltr;&quot;&gt;&lt;font style=&quot;font-size:11px;font-family:Calibri;color:#000000;direction:ltr;letter-spacing:0px;line-height:120%;opacity:1&quot;&gt;Native&lt;/font&gt;&lt;font style=&quot;font-size:11px;font-family:Calibri;color:#000000;direction:ltr;letter-spacing:0px;line-height:120%;opacity:1&quot;&gt;文件单通道上传&lt;br/&gt;&lt;/font&gt;&lt;/p&gt;" style="verticalAlign=middle;align=center;vsdxID=47;fillColor=#f0f0f0;gradientColor=#ffffff;gradientDirection=north;shape=stencil(nZBLDoAgDERP0z3SIyjew0SURgSD+Lu9kMZoXLhwN9O+tukAlrNpJg1SzDH4QW/URgNYgZTkjA4UkwJUgGXng+6DX1zLfmoymdXo17xh5zmRJ6Q42BWCfc2oJfdAr+Yv+AP9Cb7OJ3H/2JG1HNGz/84klThPVCc=);strokeColor=#404040;shadow=1;spacingTop=-1;spacingBottom=-1;spacingLeft=-1;spacingRight=-1;labelBackgroundColor=none;rounded=0;html=1;whiteSpace=wrap;" vertex="1" parent="2Ufyp_WOwzEZSYyZZ3k4-64">
          <mxGeometry x="110" y="1680" width="100" height="60" as="geometry" />
        </mxCell>
        <mxCell id="2Ufyp_WOwzEZSYyZZ3k4-119" style="vsdxID=90;fillColor=#f0f0f0;gradientColor=#ffffff;gradientDirection=north;shape=stencil(UzV2Ls5ILEhVNTIoLinKz04tz0wpyVA1dlE1MsrMy0gtyiwBslSNXVWNndPyi1LTi/JL81Ig/IJEkEoQKze/DGRCBUSfAUiHkUElhGcK4bpBVOZk5iGpNEVVikeloQHZpsK0YlWLz1QgA+HFtMycHEgIIcujBwlQCBKcxq4A);strokeColor=#404040;shadow=1;spacingTop=-1;spacingBottom=-1;spacingLeft=-1;spacingRight=-1;labelBackgroundColor=none;rounded=0;html=1;whiteSpace=wrap;" vertex="1" parent="2Ufyp_WOwzEZSYyZZ3k4-64">
          <mxGeometry x="255" y="1680" width="100" height="60" as="geometry" />
        </mxCell>
        <mxCell id="2Ufyp_WOwzEZSYyZZ3k4-120" value="&lt;font style=&quot;font-size:11px;font-family:Calibri;color:#000000;direction:ltr;letter-spacing:0px;line-height:120%;opacity:1&quot;&gt;存在在上传的文件&lt;br/&gt;&lt;/font&gt;" style="text;vsdxID=90;fillColor=none;gradientColor=none;gradientDirection=north;strokeColor=none;shadow=1;spacingTop=-1;spacingBottom=-1;spacingLeft=-1;spacingRight=-1;labelBackgroundColor=none;rounded=0;html=1;whiteSpace=wrap;verticalAlign=middle;align=center;;html=1;" vertex="1" parent="2Ufyp_WOwzEZSYyZZ3k4-119">
          <mxGeometry x="8.33" y="7.5" width="83.33" height="45" as="geometry" />
        </mxCell>
        <mxCell id="2Ufyp_WOwzEZSYyZZ3k4-121" value="&lt;font style=&quot;font-size:11px;font-family:Calibri;color:#000000;direction:ltr;letter-spacing:0px;line-height:120%;opacity:1&quot;&gt;流程结束&lt;br/&gt;&lt;/font&gt;" style="verticalAlign=middle;align=center;vsdxID=91;fillColor=#f0f0f0;gradientColor=#ffffff;gradientDirection=north;shape=stencil(tVLLDsIgEPwajiQIMfFe638Qu22JCM2Ctv69kK0Rm9qDibeZndkXC1NV6PUATIoQ0V9gNE3smToyKY3rAU1MiKmaqar1CB36m2uIDzo7M7r6e64wUZ4UOUWKB9GdIH4irzWu8B42vRrPScNFXZzN+5mvl3qJXE8mcPRRR+Pdh2Y1dsBTE95a3c0TkBRGgKEIb6wg1/r+ssCXd/vLCgm8z9caa+n6pb48dwrRV1H1Ew==);strokeColor=#404040;shadow=1;spacingTop=-1;spacingBottom=-1;spacingLeft=-1;spacingRight=-1;labelBackgroundColor=none;rounded=0;html=1;whiteSpace=wrap;" vertex="1" parent="2Ufyp_WOwzEZSYyZZ3k4-64">
          <mxGeometry x="255" y="1808" width="100" height="40" as="geometry" />
        </mxCell>
        <mxCell id="2Ufyp_WOwzEZSYyZZ3k4-122" style="vsdxID=94;fillColor=#f0f0f0;gradientColor=#ffffff;gradientDirection=north;shape=stencil(UzV2Ls5ILEhVNTIoLinKz04tz0wpyVA1dlE1MsrMy0gtyiwBslSNXVWNndPyi1LTi/JL81Ig/IJEkEoQKze/DGRCBUSfAUiHkUElhGcK4bpBVOZk5iGpNEVVikeloQHZpsK0YlWLz1QgA+HFtMycHEgIIcujBwlQCBKcxq4A);strokeColor=#404040;shadow=1;spacingTop=-1;spacingBottom=-1;spacingLeft=-1;spacingRight=-1;labelBackgroundColor=none;rounded=0;html=1;whiteSpace=wrap;" vertex="1" parent="2Ufyp_WOwzEZSYyZZ3k4-64">
          <mxGeometry x="400" y="1680" width="100" height="60" as="geometry" />
        </mxCell>
        <mxCell id="2Ufyp_WOwzEZSYyZZ3k4-123" value="&lt;font style=&quot;font-size:11px;font-family:Calibri;color:#000000;direction:ltr;letter-spacing:0px;line-height:120%;opacity:1&quot;&gt;存在等待上传的文件&lt;br/&gt;&lt;/font&gt;" style="text;vsdxID=94;fillColor=none;gradientColor=none;gradientDirection=north;strokeColor=none;shadow=1;spacingTop=-1;spacingBottom=-1;spacingLeft=-1;spacingRight=-1;labelBackgroundColor=none;rounded=0;html=1;whiteSpace=wrap;verticalAlign=middle;align=center;;html=1;" vertex="1" parent="2Ufyp_WOwzEZSYyZZ3k4-122">
          <mxGeometry x="8.33" y="7.5" width="83.33" height="45" as="geometry" />
        </mxCell>
        <mxCell id="2Ufyp_WOwzEZSYyZZ3k4-124" value="&lt;font style=&quot;font-size:11px;font-family:Calibri;color:#000000;direction:ltr;letter-spacing:0px;line-height:120%;opacity:1&quot;&gt;服务端检查&lt;br/&gt;&lt;/font&gt;" style="verticalAlign=middle;align=center;vsdxID=99;fillColor=#f0f0f0;gradientColor=#ffffff;gradientDirection=north;shape=stencil(nZBLDoAgDERP0z3SIyjew0SURgSD+Lu9kMZoXLhwN9O+tukAlrNpJg1SzDH4QW/URgNYgZTkjA4UkwJUgGXng+6DX1zLfmoymdXo17xh5zmRJ6Q42BWCfc2oJfdAr+Yv+AP9Cb7OJ3H/2JG1HNGz/84klThPVCc=);strokeColor=#404040;shadow=1;spacingTop=-1;spacingBottom=-1;spacingLeft=-1;spacingRight=-1;labelBackgroundColor=none;rounded=0;html=1;whiteSpace=wrap;" vertex="1" parent="2Ufyp_WOwzEZSYyZZ3k4-64">
          <mxGeometry x="830" y="1680" width="100" height="60" as="geometry" />
        </mxCell>
        <mxCell id="2Ufyp_WOwzEZSYyZZ3k4-125" style="vsdxID=101;fillColor=#f0f0f0;gradientColor=#ffffff;gradientDirection=north;shape=stencil(UzV2Ls5ILEhVNTIoLinKz04tz0wpyVA1dlE1MsrMy0gtyiwBslSNXVWNndPyi1LTi/JL81Ig/IJEkEoQKze/DGRCBUSfAUiHkUElhGcK4bpBVOZk5iGpNEVVikeloQHZpsK0YlWLz1QgA+HFtMycHEgIIcujBwlQCBKcxq4A);strokeColor=#404040;shadow=1;spacingTop=-1;spacingBottom=-1;spacingLeft=-1;spacingRight=-1;labelBackgroundColor=none;rounded=0;html=1;whiteSpace=wrap;" vertex="1" parent="2Ufyp_WOwzEZSYyZZ3k4-64">
          <mxGeometry x="990" y="1680" width="100" height="60" as="geometry" />
        </mxCell>
        <mxCell id="2Ufyp_WOwzEZSYyZZ3k4-126" value="&lt;font style=&quot;font-size:11px;font-family:Calibri;color:#000000;direction:ltr;letter-spacing:0px;line-height:120%;opacity:1&quot;&gt;检查请求返回200&lt;br/&gt;&lt;/font&gt;" style="text;vsdxID=101;fillColor=none;gradientColor=none;gradientDirection=north;strokeColor=none;shadow=1;spacingTop=-1;spacingBottom=-1;spacingLeft=-1;spacingRight=-1;labelBackgroundColor=none;rounded=0;html=1;whiteSpace=wrap;verticalAlign=middle;align=center;;html=1;" vertex="1" parent="2Ufyp_WOwzEZSYyZZ3k4-125">
          <mxGeometry x="8.33" y="7.5" width="83.33" height="45" as="geometry" />
        </mxCell>
        <mxCell id="2Ufyp_WOwzEZSYyZZ3k4-243" value="" style="edgeStyle=orthogonalEdgeStyle;rounded=0;orthogonalLoop=1;jettySize=auto;html=1;" edge="1" parent="2Ufyp_WOwzEZSYyZZ3k4-64" source="2Ufyp_WOwzEZSYyZZ3k4-127" target="2Ufyp_WOwzEZSYyZZ3k4-242">
          <mxGeometry relative="1" as="geometry" />
        </mxCell>
        <mxCell id="2Ufyp_WOwzEZSYyZZ3k4-245" value="是" style="edgeLabel;html=1;align=center;verticalAlign=middle;resizable=0;points=[];" vertex="1" connectable="0" parent="2Ufyp_WOwzEZSYyZZ3k4-243">
          <mxGeometry x="-0.176" y="-1" relative="1" as="geometry">
            <mxPoint as="offset" />
          </mxGeometry>
        </mxCell>
        <mxCell id="2Ufyp_WOwzEZSYyZZ3k4-127" style="vsdxID=103;fillColor=#f0f0f0;gradientColor=#ffffff;gradientDirection=north;shape=stencil(UzV2Ls5ILEhVNTIoLinKz04tz0wpyVA1dlE1MsrMy0gtyiwBslSNXVWNndPyi1LTi/JL81Ig/IJEkEoQKze/DGRCBUSfAUiHkUElhGcK4bpBVOZk5iGpNEVVikeloQHZpsK0YlWLz1QgA+HFtMycHEgIIcujBwlQCBKcxq4A);strokeColor=#404040;shadow=1;spacingTop=-1;spacingBottom=-1;spacingLeft=-1;spacingRight=-1;labelBackgroundColor=none;rounded=0;html=1;whiteSpace=wrap;" vertex="1" parent="2Ufyp_WOwzEZSYyZZ3k4-64">
          <mxGeometry x="990" y="1800" width="100" height="60" as="geometry" />
        </mxCell>
        <mxCell id="2Ufyp_WOwzEZSYyZZ3k4-128" value="&lt;font style=&quot;font-size: 11px ; font-family: &amp;#34;calibri&amp;#34; ; color: #000000 ; direction: ltr ; letter-spacing: 0px ; line-height: 120% ; opacity: 1&quot;&gt;是否还有代理可用&lt;br&gt;&lt;/font&gt;" style="text;vsdxID=103;fillColor=none;gradientColor=none;gradientDirection=north;strokeColor=none;shadow=1;spacingTop=-1;spacingBottom=-1;spacingLeft=-1;spacingRight=-1;labelBackgroundColor=none;rounded=0;html=1;whiteSpace=wrap;verticalAlign=middle;align=center;;html=1;" vertex="1" parent="2Ufyp_WOwzEZSYyZZ3k4-127">
          <mxGeometry x="8.33" y="7.5" width="83.33" height="45" as="geometry" />
        </mxCell>
        <mxCell id="2Ufyp_WOwzEZSYyZZ3k4-129" value="&lt;font style=&quot;font-size: 11px ; font-family: &amp;#34;calibri&amp;#34; ; color: #000000 ; direction: ltr ; letter-spacing: 0px ; line-height: 120% ; opacity: 1&quot;&gt;使用 wmsvr &lt;br&gt;接口上传&lt;br&gt;&lt;/font&gt;" style="verticalAlign=middle;align=center;vsdxID=105;fillColor=#f0f0f0;gradientColor=#ffffff;gradientDirection=north;shape=stencil(tVLLDsIgEPwajiQIMfFe638Qu22JCM2Ctv69kK0Rm9qDibeZndkXC1NV6PUATIoQ0V9gNE3smToyKY3rAU1MiKmaqar1CB36m2uIDzo7M7r6e64wUZ4UOUWKB9GdIH4irzWu8B42vRrPScNFXZzN+5mvl3qJXE8mcPRRR+Pdh2Y1dsBTE95a3c0TkBRGgKEIb6wg1/r+ssCXd/vLCgm8z9caa+n6pb48dwrRV1H1Ew==);strokeColor=#404040;shadow=1;spacingTop=-1;spacingBottom=-1;spacingLeft=-1;spacingRight=-1;labelBackgroundColor=none;rounded=0;html=1;whiteSpace=wrap;" vertex="1" parent="2Ufyp_WOwzEZSYyZZ3k4-64">
          <mxGeometry x="990" y="1920" width="100" height="40" as="geometry" />
        </mxCell>
        <mxCell id="2Ufyp_WOwzEZSYyZZ3k4-130" style="vsdxID=108;fillColor=#f0f0f0;gradientColor=#ffffff;gradientDirection=north;shape=stencil(UzV2Ls5ILEhVNTIoLinKz04tz0wpyVA1dlE1MsrMy0gtyiwBslSNXVWNndPyi1LTi/JL81Ig/IJEkEoQKze/DGRCBUSfAUiHkUElhGcK4bpBVOZk5iGpNEVVikeloQHZpsK0YlWLz1QgA+HFtMycHEgIIcujBwlQCBKcxq4A);strokeColor=#404040;shadow=1;spacingTop=-1;spacingBottom=-1;spacingLeft=-1;spacingRight=-1;labelBackgroundColor=none;rounded=0;html=1;whiteSpace=wrap;" vertex="1" parent="2Ufyp_WOwzEZSYyZZ3k4-64">
          <mxGeometry x="1150" y="1680" width="100" height="60" as="geometry" />
        </mxCell>
        <mxCell id="2Ufyp_WOwzEZSYyZZ3k4-131" value="&lt;font style=&quot;font-size:11px;font-family:Calibri;color:#000000;direction:ltr;letter-spacing:0px;line-height:120%;opacity:1&quot;&gt;服务器返回正常信息&lt;br/&gt;&lt;/font&gt;" style="text;vsdxID=108;fillColor=none;gradientColor=none;gradientDirection=north;strokeColor=none;shadow=1;spacingTop=-1;spacingBottom=-1;spacingLeft=-1;spacingRight=-1;labelBackgroundColor=none;rounded=0;html=1;whiteSpace=wrap;verticalAlign=middle;align=center;;html=1;" vertex="1" parent="2Ufyp_WOwzEZSYyZZ3k4-130">
          <mxGeometry x="8.33" y="7.5" width="83.33" height="45" as="geometry" />
        </mxCell>
        <mxCell id="2Ufyp_WOwzEZSYyZZ3k4-132" value="&lt;font style=&quot;font-size:11px;font-family:Calibri;color:#000000;direction:ltr;letter-spacing:0px;line-height:120%;opacity:1&quot;&gt;根据服务器返回信息，开始上传&lt;br/&gt;&lt;/font&gt;" style="verticalAlign=middle;align=center;vsdxID=111;fillColor=#f0f0f0;gradientColor=#ffffff;gradientDirection=north;shape=stencil(nZBLDoAgDERP0z3SIyjew0SURgSD+Lu9kMZoXLhwN9O+tukAlrNpJg1SzDH4QW/URgNYgZTkjA4UkwJUgGXng+6DX1zLfmoymdXo17xh5zmRJ6Q42BWCfc2oJfdAr+Yv+AP9Cb7OJ3H/2JG1HNGz/84klThPVCc=);strokeColor=#404040;shadow=1;spacingTop=-1;spacingBottom=-1;spacingLeft=-1;spacingRight=-1;labelBackgroundColor=none;rounded=0;html=1;whiteSpace=wrap;" vertex="1" parent="2Ufyp_WOwzEZSYyZZ3k4-64">
          <mxGeometry x="1310" y="1680" width="100" height="60" as="geometry" />
        </mxCell>
        <mxCell id="2Ufyp_WOwzEZSYyZZ3k4-133" style="vsdxID=114;fillColor=#f0f0f0;gradientColor=#ffffff;gradientDirection=north;shape=stencil(UzV2Ls5ILEhVNTIoLinKz04tz0wpyVA1dlE1MsrMy0gtyiwBslSNXVWNndPyi1LTi/JL81Ig/IJEkEoQKze/DGRCBUSfAUiHkUElhGcK4bpBVOZk5iGpNEVVikeloQHZpsK0YlWLz1QgA+HFtMycHEgIIcujBwlQCBKcxq4A);strokeColor=#404040;shadow=1;spacingTop=-1;spacingBottom=-1;spacingLeft=-1;spacingRight=-1;labelBackgroundColor=none;rounded=0;html=1;whiteSpace=wrap;" vertex="1" parent="2Ufyp_WOwzEZSYyZZ3k4-64">
          <mxGeometry x="1470" y="1680" width="100" height="60" as="geometry" />
        </mxCell>
        <mxCell id="2Ufyp_WOwzEZSYyZZ3k4-134" value="&lt;font style=&quot;font-size:11px;font-family:Calibri;color:#000000;direction:ltr;letter-spacing:0px;line-height:120%;opacity:1&quot;&gt;服务器存在&lt;br/&gt;&lt;/font&gt;" style="text;vsdxID=114;fillColor=none;gradientColor=none;gradientDirection=north;strokeColor=none;shadow=1;spacingTop=-1;spacingBottom=-1;spacingLeft=-1;spacingRight=-1;labelBackgroundColor=none;rounded=0;html=1;whiteSpace=wrap;verticalAlign=middle;align=center;;html=1;" vertex="1" parent="2Ufyp_WOwzEZSYyZZ3k4-133">
          <mxGeometry x="8.33" y="7.5" width="83.33" height="45" as="geometry" />
        </mxCell>
        <mxCell id="2Ufyp_WOwzEZSYyZZ3k4-135" style="vsdxID=116;fillColor=#f0f0f0;gradientColor=#ffffff;gradientDirection=north;shape=stencil(UzV2Ls5ILEhVNTIoLinKz04tz0wpyVA1dlE1MsrMy0gtyiwBslSNXVWNndPyi1LTi/JL81Ig/IJEkEoQKze/DGRCBUSfAUiHkUElhGcK4bpBVOZk5iGpNEVVikeloQHZpsK0YlWLz1QgA+HFtMycHEgIIcujBwlQCBKcxq4A);strokeColor=#404040;shadow=1;spacingTop=-1;spacingBottom=-1;spacingLeft=-1;spacingRight=-1;labelBackgroundColor=none;rounded=0;html=1;whiteSpace=wrap;" vertex="1" parent="2Ufyp_WOwzEZSYyZZ3k4-64">
          <mxGeometry x="1630" y="1680" width="100" height="60" as="geometry" />
        </mxCell>
        <mxCell id="2Ufyp_WOwzEZSYyZZ3k4-136" value="&lt;font style=&quot;font-size:11px;font-family:Calibri;color:#000000;direction:ltr;letter-spacing:0px;line-height:120%;opacity:1&quot;&gt;支持分块上传&lt;br/&gt;&lt;/font&gt;" style="text;vsdxID=116;fillColor=none;gradientColor=none;gradientDirection=north;strokeColor=none;shadow=1;spacingTop=-1;spacingBottom=-1;spacingLeft=-1;spacingRight=-1;labelBackgroundColor=none;rounded=0;html=1;whiteSpace=wrap;verticalAlign=middle;align=center;;html=1;" vertex="1" parent="2Ufyp_WOwzEZSYyZZ3k4-135">
          <mxGeometry x="8.33" y="7.5" width="83.33" height="45" as="geometry" />
        </mxCell>
        <mxCell id="2Ufyp_WOwzEZSYyZZ3k4-137" value="&lt;font style=&quot;font-size:11px;font-family:Calibri;color:#000000;direction:ltr;letter-spacing:0px;line-height:120%;opacity:1&quot;&gt;文件分块&lt;br/&gt;&lt;/font&gt;" style="verticalAlign=middle;align=center;vsdxID=118;fillColor=#f0f0f0;gradientColor=#ffffff;gradientDirection=north;shape=stencil(nZBLDoAgDERP0z3SIyjew0SURgSD+Lu9kMZoXLhwN9O+tukAlrNpJg1SzDH4QW/URgNYgZTkjA4UkwJUgGXng+6DX1zLfmoymdXo17xh5zmRJ6Q42BWCfc2oJfdAr+Yv+AP9Cb7OJ3H/2JG1HNGz/84klThPVCc=);strokeColor=#404040;shadow=1;spacingTop=-1;spacingBottom=-1;spacingLeft=-1;spacingRight=-1;labelBackgroundColor=none;rounded=0;html=1;whiteSpace=wrap;" vertex="1" parent="2Ufyp_WOwzEZSYyZZ3k4-64">
          <mxGeometry x="1790" y="1680" width="100" height="60" as="geometry" />
        </mxCell>
        <mxCell id="2Ufyp_WOwzEZSYyZZ3k4-138" value="&lt;font style=&quot;font-size:11px;font-family:Calibri;color:#000000;direction:ltr;letter-spacing:0px;line-height:120%;opacity:1&quot;&gt;开始上传&lt;br/&gt;&lt;/font&gt;" style="verticalAlign=middle;align=center;vsdxID=120;fillColor=#f0f0f0;gradientColor=#ffffff;gradientDirection=north;shape=stencil(nZBLDoAgDERP0z3SIyjew0SURgSD+Lu9kMZoXLhwN9O+tukAlrNpJg1SzDH4QW/URgNYgZTkjA4UkwJUgGXng+6DX1zLfmoymdXo17xh5zmRJ6Q42BWCfc2oJfdAr+Yv+AP9Cb7OJ3H/2JG1HNGz/84klThPVCc=);strokeColor=#404040;shadow=1;spacingTop=-1;spacingBottom=-1;spacingLeft=-1;spacingRight=-1;labelBackgroundColor=none;rounded=0;html=1;whiteSpace=wrap;" vertex="1" parent="2Ufyp_WOwzEZSYyZZ3k4-64">
          <mxGeometry x="1950" y="1680" width="100" height="60" as="geometry" />
        </mxCell>
        <mxCell id="2Ufyp_WOwzEZSYyZZ3k4-139" style="vsdxID=122;fillColor=#f0f0f0;gradientColor=#ffffff;gradientDirection=north;shape=stencil(UzV2Ls5ILEhVNTIoLinKz04tz0wpyVA1dlE1MsrMy0gtyiwBslSNXVWNndPyi1LTi/JL81Ig/IJEkEoQKze/DGRCBUSfAUiHkUElhGcK4bpBVOZk5iGpNEVVikeloQHZpsK0YlWLz1QgA+HFtMycHEgIIcujBwlQCBKcxq4A);strokeColor=#404040;shadow=1;spacingTop=-1;spacingBottom=-1;spacingLeft=-1;spacingRight=-1;labelBackgroundColor=none;rounded=0;html=1;whiteSpace=wrap;" vertex="1" parent="2Ufyp_WOwzEZSYyZZ3k4-64">
          <mxGeometry x="2110" y="1680" width="100" height="60" as="geometry" />
        </mxCell>
        <mxCell id="2Ufyp_WOwzEZSYyZZ3k4-140" value="&lt;font style=&quot;font-size:11px;font-family:Calibri;color:#000000;direction:ltr;letter-spacing:0px;line-height:120%;opacity:1&quot;&gt;服务器返回200&lt;br/&gt;&lt;/font&gt;" style="text;vsdxID=122;fillColor=none;gradientColor=none;gradientDirection=north;strokeColor=none;shadow=1;spacingTop=-1;spacingBottom=-1;spacingLeft=-1;spacingRight=-1;labelBackgroundColor=none;rounded=0;html=1;whiteSpace=wrap;verticalAlign=middle;align=center;;html=1;" vertex="1" parent="2Ufyp_WOwzEZSYyZZ3k4-139">
          <mxGeometry x="8.33" y="7.5" width="83.33" height="45" as="geometry" />
        </mxCell>
        <mxCell id="2Ufyp_WOwzEZSYyZZ3k4-141" style="vsdxID=124;fillColor=#f0f0f0;gradientColor=#ffffff;gradientDirection=north;shape=stencil(UzV2Ls5ILEhVNTIoLinKz04tz0wpyVA1dlE1MsrMy0gtyiwBslSNXVWNndPyi1LTi/JL81Ig/IJEkEoQKze/DGRCBUSfAUiHkUElhGcK4bpBVOZk5iGpNEVVikeloQHZpsK0YlWLz1QgA+HFtMycHEgIIcujBwlQCBKcxq4A);strokeColor=#404040;shadow=1;spacingTop=-1;spacingBottom=-1;spacingLeft=-1;spacingRight=-1;labelBackgroundColor=none;rounded=0;html=1;whiteSpace=wrap;" vertex="1" parent="2Ufyp_WOwzEZSYyZZ3k4-64">
          <mxGeometry x="2270" y="1680" width="100" height="60" as="geometry" />
        </mxCell>
        <mxCell id="2Ufyp_WOwzEZSYyZZ3k4-142" value="&lt;font style=&quot;font-size:11px;font-family:Calibri;color:#000000;direction:ltr;letter-spacing:0px;line-height:120%;opacity:1&quot;&gt;返回正常&lt;br/&gt;&lt;/font&gt;" style="text;vsdxID=124;fillColor=none;gradientColor=none;gradientDirection=north;strokeColor=none;shadow=1;spacingTop=-1;spacingBottom=-1;spacingLeft=-1;spacingRight=-1;labelBackgroundColor=none;rounded=0;html=1;whiteSpace=wrap;verticalAlign=middle;align=center;;html=1;" vertex="1" parent="2Ufyp_WOwzEZSYyZZ3k4-141">
          <mxGeometry x="8.33" y="7.5" width="83.33" height="45" as="geometry" />
        </mxCell>
        <mxCell id="2Ufyp_WOwzEZSYyZZ3k4-143" style="vsdxID=126;fillColor=#f0f0f0;gradientColor=#ffffff;gradientDirection=north;shape=stencil(UzV2Ls5ILEhVNTIoLinKz04tz0wpyVA1dlE1MsrMy0gtyiwBslSNXVWNndPyi1LTi/JL81Ig/IJEkEoQKze/DGRCBUSfAUiHkUElhGcK4bpBVOZk5iGpNEVVikeloQHZpsK0YlWLz1QgA+HFtMycHEgIIcujBwlQCBKcxq4A);strokeColor=#404040;shadow=1;spacingTop=-1;spacingBottom=-1;spacingLeft=-1;spacingRight=-1;labelBackgroundColor=none;rounded=0;html=1;whiteSpace=wrap;" vertex="1" parent="2Ufyp_WOwzEZSYyZZ3k4-64">
          <mxGeometry x="2430" y="1680" width="100" height="60" as="geometry" />
        </mxCell>
        <mxCell id="2Ufyp_WOwzEZSYyZZ3k4-144" value="&lt;font style=&quot;font-size:11px;font-family:Calibri;color:#000000;direction:ltr;letter-spacing:0px;line-height:120%;opacity:1&quot;&gt;上传完成&lt;br/&gt;&lt;/font&gt;" style="text;vsdxID=126;fillColor=none;gradientColor=none;gradientDirection=north;strokeColor=none;shadow=1;spacingTop=-1;spacingBottom=-1;spacingLeft=-1;spacingRight=-1;labelBackgroundColor=none;rounded=0;html=1;whiteSpace=wrap;verticalAlign=middle;align=center;;html=1;" vertex="1" parent="2Ufyp_WOwzEZSYyZZ3k4-143">
          <mxGeometry x="8.33" y="7.5" width="83.33" height="45" as="geometry" />
        </mxCell>
        <mxCell id="2Ufyp_WOwzEZSYyZZ3k4-145" style="vsdxID=128;fillColor=#f0f0f0;gradientColor=#ffffff;gradientDirection=north;shape=stencil(UzV2Ls5ILEhVNTIoLinKz04tz0wpyVA1dlE1MsrMy0gtyiwBslSNXVWNndPyi1LTi/JL81Ig/IJEkEoQKze/DGRCBUSfAUiHkUElhGcK4bpBVOZk5iGpNEVVikeloQHZpsK0YlWLz1QgA+HFtMycHEgIIcujBwlQCBKcxq4A);strokeColor=#404040;shadow=1;spacingTop=-1;spacingBottom=-1;spacingLeft=-1;spacingRight=-1;labelBackgroundColor=none;rounded=0;html=1;whiteSpace=wrap;" vertex="1" parent="2Ufyp_WOwzEZSYyZZ3k4-64">
          <mxGeometry x="2110" y="1800" width="100" height="60" as="geometry" />
        </mxCell>
        <mxCell id="2Ufyp_WOwzEZSYyZZ3k4-146" value="&lt;font style=&quot;font-size:11px;font-family:Calibri;color:#000000;direction:ltr;letter-spacing:0px;line-height:120%;opacity:1&quot;&gt;是否主动中断&lt;br/&gt;&lt;/font&gt;" style="text;vsdxID=128;fillColor=none;gradientColor=none;gradientDirection=north;strokeColor=none;shadow=1;spacingTop=-1;spacingBottom=-1;spacingLeft=-1;spacingRight=-1;labelBackgroundColor=none;rounded=0;html=1;whiteSpace=wrap;verticalAlign=middle;align=center;;html=1;" vertex="1" parent="2Ufyp_WOwzEZSYyZZ3k4-145">
          <mxGeometry x="8.33" y="7.5" width="83.33" height="45" as="geometry" />
        </mxCell>
        <mxCell id="2Ufyp_WOwzEZSYyZZ3k4-147" value="&lt;font style=&quot;font-size:11px;font-family:Calibri;color:#000000;direction:ltr;letter-spacing:0px;line-height:120%;opacity:1&quot;&gt;主动中断结束&lt;br/&gt;&lt;/font&gt;" style="verticalAlign=middle;align=center;vsdxID=130;fillColor=#f0f0f0;gradientColor=#ffffff;gradientDirection=north;shape=stencil(tVLLDsIgEPwajiQIMfFe638Qu22JCM2Ctv69kK0Rm9qDibeZndkXC1NV6PUATIoQ0V9gNE3smToyKY3rAU1MiKmaqar1CB36m2uIDzo7M7r6e64wUZ4UOUWKB9GdIH4irzWu8B42vRrPScNFXZzN+5mvl3qJXE8mcPRRR+Pdh2Y1dsBTE95a3c0TkBRGgKEIb6wg1/r+ssCXd/vLCgm8z9caa+n6pb48dwrRV1H1Ew==);strokeColor=#404040;shadow=1;spacingTop=-1;spacingBottom=-1;spacingLeft=-1;spacingRight=-1;labelBackgroundColor=none;rounded=0;html=1;whiteSpace=wrap;" vertex="1" parent="2Ufyp_WOwzEZSYyZZ3k4-64">
          <mxGeometry x="1950" y="1810" width="100" height="40" as="geometry" />
        </mxCell>
        <mxCell id="2Ufyp_WOwzEZSYyZZ3k4-148" style="vsdxID=132;fillColor=#f0f0f0;gradientColor=#ffffff;gradientDirection=north;shape=stencil(UzV2Ls5ILEhVNTIoLinKz04tz0wpyVA1dlE1MsrMy0gtyiwBslSNXVWNndPyi1LTi/JL81Ig/IJEkEoQKze/DGRCBUSfAUiHkUElhGcK4bpBVOZk5iGpNEVVikeloQHZpsK0YlWLz1QgA+HFtMycHEgIIcujBwlQCBKcxq4A);strokeColor=#404040;shadow=1;spacingTop=-1;spacingBottom=-1;spacingLeft=-1;spacingRight=-1;labelBackgroundColor=none;rounded=0;html=1;whiteSpace=wrap;" vertex="1" parent="2Ufyp_WOwzEZSYyZZ3k4-64">
          <mxGeometry x="1927" y="1920" width="100" height="60" as="geometry" />
        </mxCell>
        <mxCell id="2Ufyp_WOwzEZSYyZZ3k4-149" value="&lt;font style=&quot;font-size:11px;font-family:Calibri;color:#000000;direction:ltr;letter-spacing:0px;line-height:120%;opacity:1&quot;&gt;是否允许重试&lt;br/&gt;&lt;/font&gt;" style="text;vsdxID=132;fillColor=none;gradientColor=none;gradientDirection=north;strokeColor=none;shadow=1;spacingTop=-1;spacingBottom=-1;spacingLeft=-1;spacingRight=-1;labelBackgroundColor=none;rounded=0;html=1;whiteSpace=wrap;verticalAlign=middle;align=center;;html=1;" vertex="1" parent="2Ufyp_WOwzEZSYyZZ3k4-148">
          <mxGeometry x="8.33" y="7.5" width="83.33" height="45" as="geometry" />
        </mxCell>
        <mxCell id="2Ufyp_WOwzEZSYyZZ3k4-150" style="vsdxID=98;fillColor=#f0f0f0;gradientColor=#ffffff;gradientDirection=north;shape=stencil(UzV2Ls5ILEhVNTIoLinKz04tz0wpyVA1dlE1MsrMy0gtyiwBslSNXVWNndPyi1LTi/JL81Ig/IJEkEoQKze/DGRCBUSfAUiHkUElhGcK4bpBVOZk5iGpNEVVikeloQHZpsK0YlWLz1QgA+HFtMycHEgIIcujBwlQCBKcxq4A);strokeColor=#404040;shadow=1;spacingTop=-1;spacingBottom=-1;spacingLeft=-1;spacingRight=-1;labelBackgroundColor=none;rounded=0;html=1;whiteSpace=wrap;" vertex="1" parent="2Ufyp_WOwzEZSYyZZ3k4-64">
          <mxGeometry x="670" y="1668" width="100" height="84" as="geometry" />
        </mxCell>
        <mxCell id="2Ufyp_WOwzEZSYyZZ3k4-151" value="&lt;font style=&quot;font-size:11px;font-family:Calibri;color:#000000;direction:ltr;letter-spacing:0px;line-height:120%;opacity:1&quot;&gt;获取检测确认，是否需要服务器检查&lt;br/&gt;&lt;br/&gt;&lt;/font&gt;" style="text;vsdxID=98;fillColor=none;gradientColor=none;gradientDirection=north;strokeColor=none;shadow=1;spacingTop=-1;spacingBottom=-1;spacingLeft=-1;spacingRight=-1;labelBackgroundColor=none;rounded=0;html=1;whiteSpace=wrap;verticalAlign=middle;align=center;;html=1;" vertex="1" parent="2Ufyp_WOwzEZSYyZZ3k4-150">
          <mxGeometry x="8.33" y="10.5" width="83.33" height="63" as="geometry" />
        </mxCell>
        <mxCell id="2Ufyp_WOwzEZSYyZZ3k4-153" value="连接线" parent="0" />
        <mxCell id="2Ufyp_WOwzEZSYyZZ3k4-154" value="&lt;font style=&quot;font-size:11px;font-family:Calibri;color:#000000;direction:ltr;letter-spacing:0px;line-height:120%;opacity:1&quot;&gt;否，直接上传&lt;br/&gt;&lt;br/&gt;&lt;/font&gt;" style="vsdxID=140;edgeStyle=none;startArrow=none;endArrow=classic;startSize=5;endSize=5;strokeColor=#404040;spacingTop=0;spacingBottom=0;spacingLeft=0;spacingRight=0;verticalAlign=middle;html=1;labelBackgroundColor=#ffffff;rounded=0;align=center;exitX=0.5;exitY=0;exitDx=0;exitDy=0;exitPerimeter=0;entryX=0;entryY=0.5;entryDx=0;entryDy=0;entryPerimeter=0;" edge="1" parent="2Ufyp_WOwzEZSYyZZ3k4-153" source="2Ufyp_WOwzEZSYyZZ3k4-135" target="2Ufyp_WOwzEZSYyZZ3k4-138">
          <mxGeometry relative="1" as="geometry">
            <mxPoint x="-1" as="offset" />
            <Array as="points">
              <mxPoint x="1680" y="1656.35" />
              <mxPoint x="1901" y="1656.35" />
              <mxPoint x="1901" y="1710" />
            </Array>
          </mxGeometry>
        </mxCell>
        <mxCell id="2Ufyp_WOwzEZSYyZZ3k4-155" vertex="1" parent="2Ufyp_WOwzEZSYyZZ3k4-153">
          <mxGeometry x="788" y="1710" as="geometry" />
        </mxCell>
        <mxCell id="2Ufyp_WOwzEZSYyZZ3k4-156" value="&lt;font style=&quot;font-size:11px;font-family:Calibri;color:#000000;direction:ltr;letter-spacing:0px;line-height:120%;opacity:1&quot;&gt;否，直接开始上传&lt;br/&gt;&lt;/font&gt;" style="vsdxID=138;edgeStyle=none;startArrow=none;endArrow=classic;startSize=5;endSize=5;strokeColor=#404040;spacingTop=0;spacingBottom=0;spacingLeft=0;spacingRight=0;verticalAlign=middle;html=1;labelBackgroundColor=#ffffff;rounded=0;align=center;entryX=0.5;entryY=0;entryDx=0;entryDy=0;entryPerimeter=0;" edge="1" parent="2Ufyp_WOwzEZSYyZZ3k4-153" source="2Ufyp_WOwzEZSYyZZ3k4-155" target="2Ufyp_WOwzEZSYyZZ3k4-132">
          <mxGeometry relative="1" as="geometry">
            <mxPoint as="offset" />
            <Array as="points">
              <mxPoint x="788" y="1650" />
              <mxPoint x="1360" y="1650" />
            </Array>
          </mxGeometry>
        </mxCell>
        <mxCell id="2Ufyp_WOwzEZSYyZZ3k4-157" value="&lt;font style=&quot;font-size:11px;font-family:Calibri;color:#000000;direction:ltr;letter-spacing:0px;line-height:120%;opacity:1&quot;&gt;完成，继续下一个文件上传&lt;br/&gt;&lt;/font&gt;" style="vsdxID=137;edgeStyle=none;startArrow=none;endArrow=classic;startSize=5;endSize=5;strokeColor=#404040;spacingTop=0;spacingBottom=0;spacingLeft=0;spacingRight=0;verticalAlign=middle;html=1;labelBackgroundColor=#ffffff;rounded=0;align=center;exitX=0.5;exitY=0;exitDx=0;exitDy=0;exitPerimeter=0;entryX=0.5;entryY=0;entryDx=0;entryDy=0;entryPerimeter=0;" edge="1" parent="2Ufyp_WOwzEZSYyZZ3k4-153" source="2Ufyp_WOwzEZSYyZZ3k4-143" target="2Ufyp_WOwzEZSYyZZ3k4-91">
          <mxGeometry relative="1" as="geometry">
            <mxPoint as="offset" />
            <Array as="points">
              <mxPoint x="2480" y="1516" />
              <mxPoint x="161" y="1516" />
            </Array>
          </mxGeometry>
        </mxCell>
        <mxCell id="2Ufyp_WOwzEZSYyZZ3k4-158" value="&lt;font style=&quot;font-size:11px;font-family:Calibri;color:#000000;direction:ltr;letter-spacing:0px;line-height:120%;opacity:1&quot;&gt;否，继续下一块分块上传&lt;br/&gt;&lt;/font&gt;" style="vsdxID=136;edgeStyle=none;startArrow=none;endArrow=classic;startSize=5;endSize=5;strokeColor=#404040;spacingTop=0;spacingBottom=0;spacingLeft=0;spacingRight=0;verticalAlign=middle;html=1;labelBackgroundColor=#ffffff;rounded=0;align=center;exitX=0.5;exitY=1;exitDx=0;exitDy=0;exitPerimeter=0;entryX=0.5;entryY=1;entryDx=0;entryDy=0;entryPerimeter=0;jumpStyle=arc;" edge="1" parent="2Ufyp_WOwzEZSYyZZ3k4-153" source="2Ufyp_WOwzEZSYyZZ3k4-143" target="2Ufyp_WOwzEZSYyZZ3k4-132">
          <mxGeometry relative="1" as="geometry">
            <mxPoint x="-1" as="offset" />
            <Array as="points">
              <mxPoint x="2480" y="1757.3000000000002" />
              <mxPoint x="2324.23" y="1757.3000000000002" />
              <mxPoint x="2164.23" y="1757.3000000000002" />
              <mxPoint x="1360" y="1757.3000000000002" />
            </Array>
          </mxGeometry>
        </mxCell>
        <mxCell id="2Ufyp_WOwzEZSYyZZ3k4-159" value="&lt;font style=&quot;font-size:11px;font-family:Calibri;color:#000000;direction:ltr;letter-spacing:0px;line-height:120%;opacity:1&quot;&gt;返回的信息异常&lt;br/&gt;&lt;/font&gt;" style="vsdxID=135;edgeStyle=none;startArrow=none;endArrow=classic;startSize=5;endSize=5;strokeColor=#404040;spacingTop=0;spacingBottom=0;spacingLeft=0;spacingRight=0;verticalAlign=middle;html=1;labelBackgroundColor=#ffffff;rounded=0;align=center;exitX=0.5;exitY=1;exitDx=0;exitDy=0;exitPerimeter=0;entryX=1;entryY=0.5;entryDx=0;entryDy=0;entryPerimeter=0;" edge="1" parent="2Ufyp_WOwzEZSYyZZ3k4-153" source="2Ufyp_WOwzEZSYyZZ3k4-141" target="2Ufyp_WOwzEZSYyZZ3k4-148">
          <mxGeometry relative="1" as="geometry">
            <mxPoint as="offset" />
            <Array as="points">
              <mxPoint x="2320" y="1950" />
            </Array>
          </mxGeometry>
        </mxCell>
        <mxCell id="2Ufyp_WOwzEZSYyZZ3k4-160" style="vsdxID=134;edgeStyle=none;startArrow=none;endArrow=classic;startSize=5;endSize=5;strokeColor=#404040;spacingTop=0;spacingBottom=0;spacingLeft=0;spacingRight=0;verticalAlign=middle;html=1;labelBackgroundColor=#ffffff;rounded=0;exitX=0;exitY=0.5;exitDx=0;exitDy=0;exitPerimeter=0;entryX=0.5;entryY=0;entryDx=0;entryDy=0;entryPerimeter=0;" edge="1" parent="2Ufyp_WOwzEZSYyZZ3k4-153" source="2Ufyp_WOwzEZSYyZZ3k4-148" target="2Ufyp_WOwzEZSYyZZ3k4-127">
          <mxGeometry relative="1" as="geometry">
            <mxPoint as="offset" />
            <Array as="points">
              <mxPoint x="1897" y="1950" />
              <mxPoint x="1897" y="1770" />
              <mxPoint x="1040" y="1770" />
            </Array>
          </mxGeometry>
        </mxCell>
        <mxCell id="2Ufyp_WOwzEZSYyZZ3k4-161" value="&lt;font style=&quot;font-size:11px;font-family:Calibri;color:#000000;direction:ltr;letter-spacing:0px;line-height:120%;opacity:1&quot;&gt;否&lt;br/&gt;&lt;/font&gt;" style="vsdxID=133;edgeStyle=none;startArrow=none;endArrow=classic;startSize=5;endSize=5;strokeColor=#404040;spacingTop=0;spacingBottom=0;spacingLeft=0;spacingRight=0;verticalAlign=middle;html=1;labelBackgroundColor=#ffffff;rounded=0;align=center;exitX=0.5;exitY=1;exitDx=0;exitDy=0;exitPerimeter=0;entryX=1;entryY=0.5;entryDx=0;entryDy=0;entryPerimeter=0;" edge="1" parent="2Ufyp_WOwzEZSYyZZ3k4-153" source="2Ufyp_WOwzEZSYyZZ3k4-145" target="2Ufyp_WOwzEZSYyZZ3k4-148">
          <mxGeometry relative="1" as="geometry">
            <mxPoint as="offset" />
            <Array as="points">
              <mxPoint x="2160" y="1950" />
            </Array>
          </mxGeometry>
        </mxCell>
        <mxCell id="2Ufyp_WOwzEZSYyZZ3k4-162" value="&lt;font style=&quot;font-size:11px;font-family:Calibri;color:#000000;direction:ltr;letter-spacing:0px;line-height:120%;opacity:1&quot;&gt;否&lt;br/&gt;&lt;/font&gt;" style="vsdxID=110;edgeStyle=none;startArrow=none;endArrow=classic;startSize=5;endSize=5;strokeColor=#404040;spacingTop=0;spacingBottom=0;spacingLeft=0;spacingRight=0;verticalAlign=middle;html=1;labelBackgroundColor=#ffffff;rounded=0;align=center;exitX=0.5;exitY=1;exitDx=0;exitDy=0;exitPerimeter=0;entryX=0.5;entryY=0;entryDx=0;entryDy=0;entryPerimeter=0;" edge="1" parent="2Ufyp_WOwzEZSYyZZ3k4-153" source="2Ufyp_WOwzEZSYyZZ3k4-130" target="2Ufyp_WOwzEZSYyZZ3k4-127">
          <mxGeometry relative="1" as="geometry">
            <mxPoint as="offset" />
            <Array as="points">
              <mxPoint x="1200" y="1770" />
              <mxPoint x="1040" y="1770" />
            </Array>
          </mxGeometry>
        </mxCell>
        <mxCell id="2Ufyp_WOwzEZSYyZZ3k4-164" value="&lt;font style=&quot;font-size:11px;font-family:Calibri;color:#000000;direction:ltr;letter-spacing:0px;line-height:120%;opacity:1&quot;&gt;否，直接上传&lt;br/&gt;&lt;br/&gt;&lt;/font&gt;" style="vsdxID=97;edgeStyle=none;startArrow=none;endArrow=classic;startSize=5;endSize=5;strokeColor=#404040;spacingTop=0;spacingBottom=0;spacingLeft=0;spacingRight=0;verticalAlign=middle;html=1;labelBackgroundColor=#ffffff;rounded=0;align=center;exitX=0.5;exitY=0;exitDx=0;exitDy=0;exitPerimeter=0;entryX=0;entryY=0.5;entryDx=0;entryDy=0;entryPerimeter=0;" edge="1" parent="2Ufyp_WOwzEZSYyZZ3k4-153" source="2Ufyp_WOwzEZSYyZZ3k4-133" target="2Ufyp_WOwzEZSYyZZ3k4-138">
          <mxGeometry relative="1" as="geometry">
            <mxPoint x="-1" as="offset" />
            <Array as="points">
              <mxPoint x="1520" y="1656.35" />
              <mxPoint x="1901" y="1656.35" />
              <mxPoint x="1901" y="1710" />
            </Array>
          </mxGeometry>
        </mxCell>
        <mxCell id="2Ufyp_WOwzEZSYyZZ3k4-165" value="&lt;font style=&quot;font-size:11px;font-family:Calibri;color:#000000;direction:ltr;letter-spacing:0px;line-height:120%;opacity:1&quot;&gt;否&lt;br/&gt;&lt;/font&gt;" style="vsdxID=96;edgeStyle=none;startArrow=none;endArrow=classic;startSize=5;endSize=5;strokeColor=#404040;spacingTop=0;spacingBottom=0;spacingLeft=0;spacingRight=0;verticalAlign=middle;html=1;labelBackgroundColor=#ffffff;rounded=0;align=center;exitX=0.5;exitY=1;exitDx=0;exitDy=0;exitPerimeter=0;entryX=0.5;entryY=0;entryDx=0;entryDy=0;entryPerimeter=0;" edge="1" parent="2Ufyp_WOwzEZSYyZZ3k4-153" source="2Ufyp_WOwzEZSYyZZ3k4-122" target="2Ufyp_WOwzEZSYyZZ3k4-121">
          <mxGeometry relative="1" as="geometry">
            <mxPoint as="offset" />
            <Array as="points">
              <mxPoint x="450" y="1778" />
              <mxPoint x="305" y="1778" />
            </Array>
          </mxGeometry>
        </mxCell>
        <mxCell id="2Ufyp_WOwzEZSYyZZ3k4-166" style="vsdxID=93;edgeStyle=none;startArrow=none;endArrow=classic;startSize=5;endSize=5;strokeColor=#404040;spacingTop=0;spacingBottom=0;spacingLeft=0;spacingRight=0;verticalAlign=middle;html=1;labelBackgroundColor=#ffffff;rounded=0;exitX=1;exitY=0.5;exitDx=0;exitDy=0;exitPerimeter=0;entryX=0;entryY=0.5;entryDx=0;entryDy=0;entryPerimeter=0;" edge="1" parent="2Ufyp_WOwzEZSYyZZ3k4-153" source="2Ufyp_WOwzEZSYyZZ3k4-94" target="2Ufyp_WOwzEZSYyZZ3k4-119">
          <mxGeometry relative="1" as="geometry">
            <mxPoint x="-1" as="offset" />
            <Array as="points" />
          </mxGeometry>
        </mxCell>
        <mxCell id="2Ufyp_WOwzEZSYyZZ3k4-174" style="vsdxID=9;edgeStyle=none;startArrow=none;endArrow=classic;startSize=5;endSize=5;strokeColor=#404040;spacingTop=0;spacingBottom=0;spacingLeft=0;spacingRight=0;verticalAlign=middle;html=1;labelBackgroundColor=#ffffff;rounded=0;exitX=0.5;exitY=1;exitDx=0;exitDy=0;exitPerimeter=0;entryX=0.5;entryY=0;entryDx=0;entryDy=0;entryPerimeter=0;" edge="1" parent="2Ufyp_WOwzEZSYyZZ3k4-153" source="2Ufyp_WOwzEZSYyZZ3k4-67" target="2Ufyp_WOwzEZSYyZZ3k4-70">
          <mxGeometry relative="1" as="geometry">
            <mxPoint x="10" as="offset" />
            <Array as="points" />
          </mxGeometry>
        </mxCell>
        <mxCell id="2Ufyp_WOwzEZSYyZZ3k4-175" style="vsdxID=7;edgeStyle=none;startArrow=none;endArrow=classic;startSize=5;endSize=5;strokeColor=#404040;spacingTop=0;spacingBottom=0;spacingLeft=0;spacingRight=0;verticalAlign=middle;html=1;labelBackgroundColor=#ffffff;rounded=0;exitX=1;exitY=0.5;exitDx=0;exitDy=0;exitPerimeter=0;entryX=0;entryY=0.5;entryDx=0;entryDy=0;entryPerimeter=0;" edge="1" parent="2Ufyp_WOwzEZSYyZZ3k4-153" source="2Ufyp_WOwzEZSYyZZ3k4-67" target="2Ufyp_WOwzEZSYyZZ3k4-69">
          <mxGeometry relative="1" as="geometry">
            <mxPoint as="offset" />
            <Array as="points" />
          </mxGeometry>
        </mxCell>
        <mxCell id="2Ufyp_WOwzEZSYyZZ3k4-176" style="vsdxID=5;edgeStyle=none;startArrow=none;endArrow=classic;startSize=5;endSize=5;strokeColor=#404040;spacingTop=0;spacingBottom=0;spacingLeft=0;spacingRight=0;verticalAlign=middle;html=1;labelBackgroundColor=#ffffff;rounded=0;exitX=0.5;exitY=1;exitDx=0;exitDy=0;exitPerimeter=0;entryX=0.5;entryY=0;entryDx=0;entryDy=0;entryPerimeter=0;" edge="1" parent="2Ufyp_WOwzEZSYyZZ3k4-153" source="2Ufyp_WOwzEZSYyZZ3k4-66" target="2Ufyp_WOwzEZSYyZZ3k4-67">
          <mxGeometry relative="1" as="geometry">
            <mxPoint x="10" as="offset" />
            <Array as="points" />
          </mxGeometry>
        </mxCell>
        <mxCell id="2Ufyp_WOwzEZSYyZZ3k4-177" style="vsdxID=3;edgeStyle=none;startArrow=none;endArrow=classic;startSize=5;endSize=5;strokeColor=#404040;spacingTop=0;spacingBottom=0;spacingLeft=0;spacingRight=0;verticalAlign=middle;html=1;labelBackgroundColor=#ffffff;rounded=0;exitX=0.5;exitY=1;exitDx=0;exitDy=0;exitPerimeter=0;entryX=0.5;entryY=0;entryDx=0;entryDy=0;entryPerimeter=0;" edge="1" parent="2Ufyp_WOwzEZSYyZZ3k4-153" source="2Ufyp_WOwzEZSYyZZ3k4-65" target="2Ufyp_WOwzEZSYyZZ3k4-66">
          <mxGeometry relative="1" as="geometry">
            <mxPoint x="10" as="offset" />
            <Array as="points" />
          </mxGeometry>
        </mxCell>
        <mxCell id="2Ufyp_WOwzEZSYyZZ3k4-178" style="vsdxID=11;edgeStyle=none;startArrow=none;endArrow=classic;startSize=5;endSize=5;strokeColor=#404040;spacingTop=0;spacingBottom=0;spacingLeft=0;spacingRight=0;verticalAlign=middle;html=1;labelBackgroundColor=#ffffff;rounded=0;exitX=0.5;exitY=1;exitDx=0;exitDy=0;exitPerimeter=0;entryX=0.5;entryY=0;entryDx=0;entryDy=0;entryPerimeter=0;" edge="1" parent="2Ufyp_WOwzEZSYyZZ3k4-153" source="2Ufyp_WOwzEZSYyZZ3k4-70" target="2Ufyp_WOwzEZSYyZZ3k4-71">
          <mxGeometry relative="1" as="geometry">
            <mxPoint x="10" as="offset" />
            <Array as="points" />
          </mxGeometry>
        </mxCell>
        <mxCell id="2Ufyp_WOwzEZSYyZZ3k4-179" style="vsdxID=13;edgeStyle=none;startArrow=none;endArrow=classic;startSize=5;endSize=5;strokeColor=#404040;spacingTop=0;spacingBottom=0;spacingLeft=0;spacingRight=0;verticalAlign=middle;html=1;labelBackgroundColor=#ffffff;rounded=0;exitX=0.5;exitY=1;exitDx=0;exitDy=0;exitPerimeter=0;entryX=0.5;entryY=0;entryDx=0;entryDy=0;entryPerimeter=0;" edge="1" parent="2Ufyp_WOwzEZSYyZZ3k4-153" source="2Ufyp_WOwzEZSYyZZ3k4-71" target="2Ufyp_WOwzEZSYyZZ3k4-72">
          <mxGeometry relative="1" as="geometry">
            <mxPoint x="10" as="offset" />
            <Array as="points" />
          </mxGeometry>
        </mxCell>
        <mxCell id="2Ufyp_WOwzEZSYyZZ3k4-180" style="vsdxID=15;edgeStyle=none;startArrow=none;endArrow=classic;startSize=5;endSize=5;strokeColor=#404040;spacingTop=0;spacingBottom=0;spacingLeft=0;spacingRight=0;verticalAlign=middle;html=1;labelBackgroundColor=#ffffff;rounded=0;exitX=1;exitY=0.5;exitDx=0;exitDy=0;exitPerimeter=0;entryX=0;entryY=0.5;entryDx=0;entryDy=0;entryPerimeter=0;" edge="1" parent="2Ufyp_WOwzEZSYyZZ3k4-153" source="2Ufyp_WOwzEZSYyZZ3k4-72" target="2Ufyp_WOwzEZSYyZZ3k4-74">
          <mxGeometry relative="1" as="geometry">
            <mxPoint as="offset" />
            <Array as="points" />
          </mxGeometry>
        </mxCell>
        <mxCell id="2Ufyp_WOwzEZSYyZZ3k4-181" value="&lt;font style=&quot;font-size:11px;font-family:Calibri;color:#000000;direction:ltr;letter-spacing:0px;line-height:120%;opacity:1&quot;&gt;是&lt;br/&gt;&lt;/font&gt;" style="vsdxID=26;edgeStyle=none;startArrow=none;endArrow=classic;startSize=5;endSize=5;strokeColor=#404040;spacingTop=0;spacingBottom=0;spacingLeft=0;spacingRight=0;verticalAlign=middle;html=1;labelBackgroundColor=#ffffff;rounded=0;align=center;exitX=1;exitY=0.5;exitDx=0;exitDy=0;exitPerimeter=0;entryX=1;entryY=0.5;entryDx=0;entryDy=0;entryPerimeter=0;" edge="1" parent="2Ufyp_WOwzEZSYyZZ3k4-153" source="2Ufyp_WOwzEZSYyZZ3k4-82" target="2Ufyp_WOwzEZSYyZZ3k4-71">
          <mxGeometry relative="1" as="geometry">
            <mxPoint as="offset" />
            <Array as="points">
              <mxPoint x="679" y="1056" />
              <mxPoint x="679" y="550" />
            </Array>
          </mxGeometry>
        </mxCell>
        <mxCell id="2Ufyp_WOwzEZSYyZZ3k4-182" value="&lt;font style=&quot;font-size:11px;font-family:Calibri;color:#000000;direction:ltr;letter-spacing:0px;line-height:120%;opacity:1&quot;&gt;是&lt;br/&gt;&lt;br/&gt;&lt;/font&gt;" style="vsdxID=27;edgeStyle=none;startArrow=none;endArrow=classic;startSize=5;endSize=5;strokeColor=#404040;spacingTop=0;spacingBottom=0;spacingLeft=0;spacingRight=0;verticalAlign=middle;html=1;labelBackgroundColor=#ffffff;rounded=0;align=center;exitX=1;exitY=0.5;exitDx=0;exitDy=0;exitPerimeter=0;entryX=1;entryY=0.5;entryDx=0;entryDy=0;entryPerimeter=0;" edge="1" parent="2Ufyp_WOwzEZSYyZZ3k4-153" source="2Ufyp_WOwzEZSYyZZ3k4-75" target="2Ufyp_WOwzEZSYyZZ3k4-71">
          <mxGeometry relative="1" as="geometry">
            <mxPoint x="10" as="offset" />
            <Array as="points">
              <mxPoint x="423" y="802" />
              <mxPoint x="423" y="550" />
            </Array>
          </mxGeometry>
        </mxCell>
        <mxCell id="2Ufyp_WOwzEZSYyZZ3k4-183" value="&lt;font style=&quot;font-size:11px;font-family:Calibri;color:#000000;direction:ltr;letter-spacing:0px;line-height:120%;opacity:1&quot;&gt;是&lt;br/&gt;&lt;/font&gt;" style="vsdxID=30;edgeStyle=none;startArrow=none;endArrow=classic;startSize=5;endSize=5;strokeColor=#404040;spacingTop=0;spacingBottom=0;spacingLeft=0;spacingRight=0;verticalAlign=middle;html=1;labelBackgroundColor=#ffffff;rounded=0;align=center;exitX=0;exitY=0.5;exitDx=0;exitDy=0;exitPerimeter=0;entryX=1;entryY=0.5;entryDx=0;entryDy=0;entryPerimeter=0;" edge="1" parent="2Ufyp_WOwzEZSYyZZ3k4-153" source="2Ufyp_WOwzEZSYyZZ3k4-82" target="2Ufyp_WOwzEZSYyZZ3k4-84">
          <mxGeometry relative="1" as="geometry">
            <mxPoint as="offset" />
            <Array as="points" />
          </mxGeometry>
        </mxCell>
        <mxCell id="2Ufyp_WOwzEZSYyZZ3k4-184" value="&lt;font style=&quot;font-size:11px;font-family:Calibri;color:#000000;direction:ltr;letter-spacing:0px;line-height:120%;opacity:1&quot;&gt;否&lt;br/&gt;&lt;/font&gt;" style="vsdxID=40;edgeStyle=none;startArrow=none;endArrow=classic;startSize=5;endSize=5;strokeColor=#404040;spacingTop=0;spacingBottom=0;spacingLeft=0;spacingRight=0;verticalAlign=middle;html=1;labelBackgroundColor=#ffffff;rounded=0;align=center;exitX=0.5;exitY=1;exitDx=0;exitDy=0;exitPerimeter=0;entryX=0.5;entryY=0;entryDx=0;entryDy=0;entryPerimeter=0;" edge="1" parent="2Ufyp_WOwzEZSYyZZ3k4-153" source="2Ufyp_WOwzEZSYyZZ3k4-80" target="2Ufyp_WOwzEZSYyZZ3k4-84">
          <mxGeometry relative="1" as="geometry">
            <mxPoint as="offset" />
            <Array as="points">
              <mxPoint x="400" y="996" />
              <mxPoint x="161" y="996" />
            </Array>
          </mxGeometry>
        </mxCell>
        <mxCell id="2Ufyp_WOwzEZSYyZZ3k4-187" style="vsdxID=139;edgeStyle=none;startArrow=none;endArrow=classic;startSize=5;endSize=5;strokeColor=#404040;spacingTop=0;spacingBottom=0;spacingLeft=0;spacingRight=0;verticalAlign=middle;html=1;labelBackgroundColor=#ffffff;rounded=0;exitX=1;exitY=0.5;exitDx=0;exitDy=0;exitPerimeter=0;entryX=0;entryY=0.5;entryDx=0;entryDy=0;entryPerimeter=0;" edge="1" parent="2Ufyp_WOwzEZSYyZZ3k4-153" source="2Ufyp_WOwzEZSYyZZ3k4-150" target="2Ufyp_WOwzEZSYyZZ3k4-124">
          <mxGeometry relative="1" as="geometry">
            <mxPoint as="offset" />
            <Array as="points" />
          </mxGeometry>
        </mxCell>
        <mxCell id="2Ufyp_WOwzEZSYyZZ3k4-188" value="&lt;font style=&quot;font-size:11px;font-family:Calibri;color:#000000;direction:ltr;letter-spacing:0px;line-height:120%;opacity:1&quot;&gt;是&lt;br/&gt;&lt;/font&gt;" style="vsdxID=131;edgeStyle=none;startArrow=none;endArrow=classic;startSize=5;endSize=5;strokeColor=#404040;spacingTop=0;spacingBottom=0;spacingLeft=0;spacingRight=0;verticalAlign=middle;html=1;labelBackgroundColor=#ffffff;rounded=0;align=center;exitX=0;exitY=0.5;exitDx=0;exitDy=0;exitPerimeter=0;entryX=1;entryY=0.5;entryDx=0;entryDy=0;entryPerimeter=0;" edge="1" parent="2Ufyp_WOwzEZSYyZZ3k4-153" source="2Ufyp_WOwzEZSYyZZ3k4-145" target="2Ufyp_WOwzEZSYyZZ3k4-147">
          <mxGeometry relative="1" as="geometry">
            <mxPoint as="offset" />
            <Array as="points" />
          </mxGeometry>
        </mxCell>
        <mxCell id="2Ufyp_WOwzEZSYyZZ3k4-189" value="&lt;font style=&quot;font-size:11px;font-family:Calibri;color:#000000;direction:ltr;letter-spacing:0px;line-height:120%;opacity:1&quot;&gt;否&lt;br/&gt;&lt;/font&gt;" style="vsdxID=129;edgeStyle=none;startArrow=none;endArrow=classic;startSize=5;endSize=5;strokeColor=#404040;spacingTop=0;spacingBottom=0;spacingLeft=0;spacingRight=0;verticalAlign=middle;html=1;labelBackgroundColor=#ffffff;rounded=0;align=center;exitX=0.5;exitY=1;exitDx=0;exitDy=0;exitPerimeter=0;entryX=0.5;entryY=0;entryDx=0;entryDy=0;entryPerimeter=0;" edge="1" parent="2Ufyp_WOwzEZSYyZZ3k4-153" source="2Ufyp_WOwzEZSYyZZ3k4-139" target="2Ufyp_WOwzEZSYyZZ3k4-145">
          <mxGeometry relative="1" as="geometry">
            <mxPoint x="10" as="offset" />
            <Array as="points" />
          </mxGeometry>
        </mxCell>
        <mxCell id="2Ufyp_WOwzEZSYyZZ3k4-190" value="&lt;font style=&quot;font-size:11px;font-family:Calibri;color:#000000;direction:ltr;letter-spacing:0px;line-height:120%;opacity:1&quot;&gt;是&lt;br/&gt;&lt;/font&gt;" style="vsdxID=127;edgeStyle=none;startArrow=none;endArrow=classic;startSize=5;endSize=5;strokeColor=#404040;spacingTop=0;spacingBottom=0;spacingLeft=0;spacingRight=0;verticalAlign=middle;html=1;labelBackgroundColor=#ffffff;rounded=0;align=center;exitX=1;exitY=0.5;exitDx=0;exitDy=0;exitPerimeter=0;entryX=0;entryY=0.5;entryDx=0;entryDy=0;entryPerimeter=0;" edge="1" parent="2Ufyp_WOwzEZSYyZZ3k4-153" source="2Ufyp_WOwzEZSYyZZ3k4-141" target="2Ufyp_WOwzEZSYyZZ3k4-143">
          <mxGeometry relative="1" as="geometry">
            <mxPoint as="offset" />
            <Array as="points" />
          </mxGeometry>
        </mxCell>
        <mxCell id="2Ufyp_WOwzEZSYyZZ3k4-191" value="&lt;font style=&quot;font-size:11px;font-family:Calibri;color:#000000;direction:ltr;letter-spacing:0px;line-height:120%;opacity:1&quot;&gt;是&lt;br/&gt;&lt;/font&gt;" style="vsdxID=125;edgeStyle=none;startArrow=none;endArrow=classic;startSize=5;endSize=5;strokeColor=#404040;spacingTop=0;spacingBottom=0;spacingLeft=0;spacingRight=0;verticalAlign=middle;html=1;labelBackgroundColor=#ffffff;rounded=0;align=center;exitX=1;exitY=0.5;exitDx=0;exitDy=0;exitPerimeter=0;entryX=0;entryY=0.5;entryDx=0;entryDy=0;entryPerimeter=0;" edge="1" parent="2Ufyp_WOwzEZSYyZZ3k4-153" source="2Ufyp_WOwzEZSYyZZ3k4-139" target="2Ufyp_WOwzEZSYyZZ3k4-141">
          <mxGeometry relative="1" as="geometry">
            <mxPoint as="offset" />
            <Array as="points" />
          </mxGeometry>
        </mxCell>
        <mxCell id="2Ufyp_WOwzEZSYyZZ3k4-192" style="vsdxID=123;edgeStyle=none;startArrow=none;endArrow=classic;startSize=5;endSize=5;strokeColor=#404040;spacingTop=0;spacingBottom=0;spacingLeft=0;spacingRight=0;verticalAlign=middle;html=1;labelBackgroundColor=#ffffff;rounded=0;exitX=1;exitY=0.5;exitDx=0;exitDy=0;exitPerimeter=0;entryX=0;entryY=0.5;entryDx=0;entryDy=0;entryPerimeter=0;" edge="1" parent="2Ufyp_WOwzEZSYyZZ3k4-153" source="2Ufyp_WOwzEZSYyZZ3k4-138" target="2Ufyp_WOwzEZSYyZZ3k4-139">
          <mxGeometry relative="1" as="geometry">
            <mxPoint as="offset" />
            <Array as="points" />
          </mxGeometry>
        </mxCell>
        <mxCell id="2Ufyp_WOwzEZSYyZZ3k4-193" style="vsdxID=121;edgeStyle=none;startArrow=none;endArrow=classic;startSize=5;endSize=5;strokeColor=#404040;spacingTop=0;spacingBottom=0;spacingLeft=0;spacingRight=0;verticalAlign=middle;html=1;labelBackgroundColor=#ffffff;rounded=0;exitX=1;exitY=0.5;exitDx=0;exitDy=0;exitPerimeter=0;entryX=0;entryY=0.5;entryDx=0;entryDy=0;entryPerimeter=0;" edge="1" parent="2Ufyp_WOwzEZSYyZZ3k4-153" source="2Ufyp_WOwzEZSYyZZ3k4-137" target="2Ufyp_WOwzEZSYyZZ3k4-138">
          <mxGeometry relative="1" as="geometry">
            <mxPoint as="offset" />
            <Array as="points" />
          </mxGeometry>
        </mxCell>
        <mxCell id="2Ufyp_WOwzEZSYyZZ3k4-194" value="&lt;font style=&quot;font-size:11px;font-family:Calibri;color:#000000;direction:ltr;letter-spacing:0px;line-height:120%;opacity:1&quot;&gt;是&lt;br/&gt;&lt;/font&gt;" style="vsdxID=119;edgeStyle=none;startArrow=none;endArrow=classic;startSize=5;endSize=5;strokeColor=#404040;spacingTop=0;spacingBottom=0;spacingLeft=0;spacingRight=0;verticalAlign=middle;html=1;labelBackgroundColor=#ffffff;rounded=0;align=center;exitX=1;exitY=0.5;exitDx=0;exitDy=0;exitPerimeter=0;entryX=0;entryY=0.5;entryDx=0;entryDy=0;entryPerimeter=0;" edge="1" parent="2Ufyp_WOwzEZSYyZZ3k4-153" source="2Ufyp_WOwzEZSYyZZ3k4-135" target="2Ufyp_WOwzEZSYyZZ3k4-137">
          <mxGeometry relative="1" as="geometry">
            <mxPoint as="offset" />
            <Array as="points" />
          </mxGeometry>
        </mxCell>
        <mxCell id="2Ufyp_WOwzEZSYyZZ3k4-195" value="&lt;font style=&quot;font-size:11px;font-family:Calibri;color:#000000;direction:ltr;letter-spacing:0px;line-height:120%;opacity:1&quot;&gt;是&lt;br/&gt;&lt;/font&gt;" style="vsdxID=117;edgeStyle=none;startArrow=none;endArrow=classic;startSize=5;endSize=5;strokeColor=#404040;spacingTop=0;spacingBottom=0;spacingLeft=0;spacingRight=0;verticalAlign=middle;html=1;labelBackgroundColor=#ffffff;rounded=0;align=center;exitX=1;exitY=0.5;exitDx=0;exitDy=0;exitPerimeter=0;entryX=0;entryY=0.5;entryDx=0;entryDy=0;entryPerimeter=0;" edge="1" parent="2Ufyp_WOwzEZSYyZZ3k4-153" source="2Ufyp_WOwzEZSYyZZ3k4-133" target="2Ufyp_WOwzEZSYyZZ3k4-135">
          <mxGeometry relative="1" as="geometry">
            <mxPoint as="offset" />
            <Array as="points" />
          </mxGeometry>
        </mxCell>
        <mxCell id="2Ufyp_WOwzEZSYyZZ3k4-196" style="vsdxID=115;edgeStyle=none;startArrow=none;endArrow=classic;startSize=5;endSize=5;strokeColor=#404040;spacingTop=0;spacingBottom=0;spacingLeft=0;spacingRight=0;verticalAlign=middle;html=1;labelBackgroundColor=#ffffff;rounded=0;exitX=1;exitY=0.5;exitDx=0;exitDy=0;exitPerimeter=0;entryX=0;entryY=0.5;entryDx=0;entryDy=0;entryPerimeter=0;" edge="1" parent="2Ufyp_WOwzEZSYyZZ3k4-153" source="2Ufyp_WOwzEZSYyZZ3k4-132" target="2Ufyp_WOwzEZSYyZZ3k4-133">
          <mxGeometry relative="1" as="geometry">
            <mxPoint as="offset" />
            <Array as="points" />
          </mxGeometry>
        </mxCell>
        <mxCell id="2Ufyp_WOwzEZSYyZZ3k4-198" value="&lt;font style=&quot;font-size:11px;font-family:Calibri;color:#000000;direction:ltr;letter-spacing:0px;line-height:120%;opacity:1&quot;&gt;是&lt;br/&gt;&lt;/font&gt;" style="vsdxID=112;edgeStyle=none;startArrow=none;endArrow=classic;startSize=5;endSize=5;strokeColor=#404040;spacingTop=0;spacingBottom=0;spacingLeft=0;spacingRight=0;verticalAlign=middle;html=1;labelBackgroundColor=#ffffff;rounded=0;align=center;exitX=1;exitY=0.5;exitDx=0;exitDy=0;exitPerimeter=0;entryX=0;entryY=0.5;entryDx=0;entryDy=0;entryPerimeter=0;" edge="1" parent="2Ufyp_WOwzEZSYyZZ3k4-153" source="2Ufyp_WOwzEZSYyZZ3k4-130" target="2Ufyp_WOwzEZSYyZZ3k4-132">
          <mxGeometry relative="1" as="geometry">
            <mxPoint as="offset" />
            <Array as="points" />
          </mxGeometry>
        </mxCell>
        <mxCell id="2Ufyp_WOwzEZSYyZZ3k4-199" value="&lt;font style=&quot;font-size:11px;font-family:Calibri;color:#000000;direction:ltr;letter-spacing:0px;line-height:120%;opacity:1&quot;&gt;是&lt;br/&gt;&lt;/font&gt;" style="vsdxID=109;edgeStyle=none;startArrow=none;endArrow=classic;startSize=5;endSize=5;strokeColor=#404040;spacingTop=0;spacingBottom=0;spacingLeft=0;spacingRight=0;verticalAlign=middle;html=1;labelBackgroundColor=#ffffff;rounded=0;align=center;exitX=1;exitY=0.5;exitDx=0;exitDy=0;exitPerimeter=0;entryX=0;entryY=0.5;entryDx=0;entryDy=0;entryPerimeter=0;" edge="1" parent="2Ufyp_WOwzEZSYyZZ3k4-153" source="2Ufyp_WOwzEZSYyZZ3k4-125" target="2Ufyp_WOwzEZSYyZZ3k4-130">
          <mxGeometry relative="1" as="geometry">
            <mxPoint as="offset" />
            <Array as="points" />
          </mxGeometry>
        </mxCell>
        <mxCell id="2Ufyp_WOwzEZSYyZZ3k4-200" value="&lt;font style=&quot;font-size: 11px ; font-family: &amp;#34;calibri&amp;#34; ; color: #000000 ; direction: ltr ; letter-spacing: 0px ; line-height: 120% ; opacity: 1&quot;&gt;否&lt;br&gt;&lt;/font&gt;" style="vsdxID=106;edgeStyle=none;startArrow=none;endArrow=classic;startSize=5;endSize=5;strokeColor=#404040;spacingTop=0;spacingBottom=0;spacingLeft=0;spacingRight=0;verticalAlign=middle;html=1;labelBackgroundColor=#ffffff;rounded=0;align=center;exitX=0.5;exitY=1;exitDx=0;exitDy=0;exitPerimeter=0;entryX=0.5;entryY=0;entryDx=0;entryDy=0;entryPerimeter=0;" edge="1" parent="2Ufyp_WOwzEZSYyZZ3k4-153" source="2Ufyp_WOwzEZSYyZZ3k4-127" target="2Ufyp_WOwzEZSYyZZ3k4-129">
          <mxGeometry relative="1" as="geometry">
            <mxPoint x="10" as="offset" />
            <Array as="points" />
          </mxGeometry>
        </mxCell>
        <mxCell id="2Ufyp_WOwzEZSYyZZ3k4-201" value="&lt;font style=&quot;font-size:11px;font-family:Calibri;color:#000000;direction:ltr;letter-spacing:0px;line-height:120%;opacity:1&quot;&gt;否&lt;br/&gt;&lt;/font&gt;" style="vsdxID=104;edgeStyle=none;startArrow=none;endArrow=classic;startSize=5;endSize=5;strokeColor=#404040;spacingTop=0;spacingBottom=0;spacingLeft=0;spacingRight=0;verticalAlign=middle;html=1;labelBackgroundColor=#ffffff;rounded=0;align=center;exitX=0.5;exitY=1;exitDx=0;exitDy=0;exitPerimeter=0;entryX=0.5;entryY=0;entryDx=0;entryDy=0;entryPerimeter=0;" edge="1" parent="2Ufyp_WOwzEZSYyZZ3k4-153" source="2Ufyp_WOwzEZSYyZZ3k4-125" target="2Ufyp_WOwzEZSYyZZ3k4-127">
          <mxGeometry relative="1" as="geometry">
            <mxPoint x="10" as="offset" />
            <Array as="points" />
          </mxGeometry>
        </mxCell>
        <mxCell id="2Ufyp_WOwzEZSYyZZ3k4-202" style="vsdxID=102;edgeStyle=none;startArrow=none;endArrow=classic;startSize=5;endSize=5;strokeColor=#404040;spacingTop=0;spacingBottom=0;spacingLeft=0;spacingRight=0;verticalAlign=middle;html=1;labelBackgroundColor=#ffffff;rounded=0;exitX=1;exitY=0.5;exitDx=0;exitDy=0;exitPerimeter=0;entryX=0;entryY=0.5;entryDx=0;entryDy=0;entryPerimeter=0;" edge="1" parent="2Ufyp_WOwzEZSYyZZ3k4-153" source="2Ufyp_WOwzEZSYyZZ3k4-124" target="2Ufyp_WOwzEZSYyZZ3k4-125">
          <mxGeometry relative="1" as="geometry">
            <mxPoint as="offset" />
            <Array as="points" />
          </mxGeometry>
        </mxCell>
        <mxCell id="2Ufyp_WOwzEZSYyZZ3k4-203" vertex="1" parent="2Ufyp_WOwzEZSYyZZ3k4-153">
          <mxGeometry x="788" y="1710" as="geometry" />
        </mxCell>
        <mxCell id="2Ufyp_WOwzEZSYyZZ3k4-204" value="&lt;font style=&quot;font-size:11px;font-family:Calibri;color:#000000;direction:ltr;letter-spacing:0px;line-height:120%;opacity:1&quot;&gt;是&lt;br/&gt;&lt;/font&gt;" style="vsdxID=100;edgeStyle=none;startArrow=none;endArrow=classic;startSize=5;endSize=5;strokeColor=#404040;spacingTop=0;spacingBottom=0;spacingLeft=0;spacingRight=0;verticalAlign=middle;html=1;labelBackgroundColor=#ffffff;rounded=0;align=center;entryX=0;entryY=0.5;entryDx=0;entryDy=0;entryPerimeter=0;" edge="1" parent="2Ufyp_WOwzEZSYyZZ3k4-153" source="2Ufyp_WOwzEZSYyZZ3k4-203" target="2Ufyp_WOwzEZSYyZZ3k4-124">
          <mxGeometry relative="1" as="geometry">
            <mxPoint as="offset" />
            <Array as="points" />
          </mxGeometry>
        </mxCell>
        <mxCell id="2Ufyp_WOwzEZSYyZZ3k4-205" value="&lt;font style=&quot;font-size:11px;font-family:Calibri;color:#000000;direction:ltr;letter-spacing:0px;line-height:120%;opacity:1&quot;&gt;否&lt;br/&gt;&lt;/font&gt;" style="vsdxID=95;edgeStyle=none;startArrow=none;endArrow=classic;startSize=5;endSize=5;strokeColor=#404040;spacingTop=0;spacingBottom=0;spacingLeft=0;spacingRight=0;verticalAlign=middle;html=1;labelBackgroundColor=#ffffff;rounded=0;align=center;exitX=1;exitY=0.5;exitDx=0;exitDy=0;exitPerimeter=0;entryX=0;entryY=0.5;entryDx=0;entryDy=0;entryPerimeter=0;" edge="1" parent="2Ufyp_WOwzEZSYyZZ3k4-153" source="2Ufyp_WOwzEZSYyZZ3k4-119" target="2Ufyp_WOwzEZSYyZZ3k4-122">
          <mxGeometry relative="1" as="geometry">
            <mxPoint x="-1" as="offset" />
            <Array as="points" />
          </mxGeometry>
        </mxCell>
        <mxCell id="2Ufyp_WOwzEZSYyZZ3k4-206" value="&lt;font style=&quot;font-size:11px;font-family:Calibri;color:#000000;direction:ltr;letter-spacing:0px;line-height:120%;opacity:1&quot;&gt;是&lt;br/&gt;&lt;/font&gt;" style="vsdxID=92;edgeStyle=none;startArrow=none;endArrow=classic;startSize=5;endSize=5;strokeColor=#404040;spacingTop=0;spacingBottom=0;spacingLeft=0;spacingRight=0;verticalAlign=middle;html=1;labelBackgroundColor=#ffffff;rounded=0;align=center;exitX=0.5;exitY=1;exitDx=0;exitDy=0;exitPerimeter=0;entryX=0.5;entryY=0;entryDx=0;entryDy=0;entryPerimeter=0;" edge="1" parent="2Ufyp_WOwzEZSYyZZ3k4-153" source="2Ufyp_WOwzEZSYyZZ3k4-119" target="2Ufyp_WOwzEZSYyZZ3k4-121">
          <mxGeometry relative="1" as="geometry">
            <mxPoint x="10" as="offset" />
            <Array as="points" />
          </mxGeometry>
        </mxCell>
        <mxCell id="2Ufyp_WOwzEZSYyZZ3k4-218" style="vsdxID=17;edgeStyle=none;startArrow=none;endArrow=classic;startSize=5;endSize=5;strokeColor=#404040;spacingTop=0;spacingBottom=0;spacingLeft=0;spacingRight=0;verticalAlign=middle;html=1;labelBackgroundColor=#ffffff;rounded=0;exitX=0.5;exitY=1;exitDx=0;exitDy=0;exitPerimeter=0;entryX=0.5;entryY=0;entryDx=0;entryDy=0;entryPerimeter=0;" edge="1" parent="2Ufyp_WOwzEZSYyZZ3k4-153" source="2Ufyp_WOwzEZSYyZZ3k4-72" target="2Ufyp_WOwzEZSYyZZ3k4-75">
          <mxGeometry relative="1" as="geometry">
            <mxPoint x="10" as="offset" />
            <Array as="points" />
          </mxGeometry>
        </mxCell>
        <mxCell id="2Ufyp_WOwzEZSYyZZ3k4-219" style="vsdxID=19;edgeStyle=none;startArrow=none;endArrow=classic;startSize=5;endSize=5;strokeColor=#404040;spacingTop=0;spacingBottom=0;spacingLeft=0;spacingRight=0;verticalAlign=middle;html=1;labelBackgroundColor=#ffffff;rounded=0;exitX=0.5;exitY=1;exitDx=0;exitDy=0;exitPerimeter=0;entryX=0.5;entryY=0;entryDx=0;entryDy=0;entryPerimeter=0;" edge="1" parent="2Ufyp_WOwzEZSYyZZ3k4-153" source="2Ufyp_WOwzEZSYyZZ3k4-75" target="2Ufyp_WOwzEZSYyZZ3k4-77">
          <mxGeometry relative="1" as="geometry">
            <mxPoint x="10" as="offset" />
            <Array as="points" />
          </mxGeometry>
        </mxCell>
        <mxCell id="2Ufyp_WOwzEZSYyZZ3k4-221" value="&lt;font style=&quot;font-size:11px;font-family:Calibri;color:#000000;direction:ltr;letter-spacing:0px;line-height:120%;opacity:1&quot;&gt;否&lt;br/&gt;&lt;/font&gt;" style="vsdxID=23;edgeStyle=none;startArrow=none;endArrow=classic;startSize=5;endSize=5;strokeColor=#404040;spacingTop=0;spacingBottom=0;spacingLeft=0;spacingRight=0;verticalAlign=middle;html=1;labelBackgroundColor=#ffffff;rounded=0;align=center;exitX=1;exitY=0.5;exitDx=0;exitDy=0;exitPerimeter=0;entryX=0.02;entryY=0.495;entryDx=0;entryDy=0;entryPerimeter=0;" edge="1" parent="2Ufyp_WOwzEZSYyZZ3k4-153" source="2Ufyp_WOwzEZSYyZZ3k4-77" target="2Ufyp_WOwzEZSYyZZ3k4-80">
          <mxGeometry relative="1" as="geometry">
            <mxPoint as="offset" />
            <Array as="points" />
            <mxPoint x="283" y="924" as="targetPoint" />
          </mxGeometry>
        </mxCell>
        <mxCell id="2Ufyp_WOwzEZSYyZZ3k4-222" value="&lt;font style=&quot;font-size:11px;font-family:Calibri;color:#000000;direction:ltr;letter-spacing:0px;line-height:120%;opacity:1&quot;&gt;是&lt;br/&gt;&lt;/font&gt;" style="vsdxID=25;edgeStyle=none;startArrow=none;endArrow=classic;startSize=5;endSize=5;strokeColor=#404040;spacingTop=0;spacingBottom=0;spacingLeft=0;spacingRight=0;verticalAlign=middle;html=1;labelBackgroundColor=#ffffff;rounded=0;align=center;exitX=1;exitY=0.5;exitDx=0;exitDy=0;exitPerimeter=0;entryX=0.5;entryY=0;entryDx=0;entryDy=0;entryPerimeter=0;" edge="1" parent="2Ufyp_WOwzEZSYyZZ3k4-153" source="2Ufyp_WOwzEZSYyZZ3k4-80" target="2Ufyp_WOwzEZSYyZZ3k4-82">
          <mxGeometry relative="1" as="geometry">
            <mxPoint as="offset" />
            <Array as="points">
              <mxPoint x="512" y="924" />
            </Array>
          </mxGeometry>
        </mxCell>
        <mxCell id="2Ufyp_WOwzEZSYyZZ3k4-223" value="&lt;font style=&quot;font-size:11px;font-family:Calibri;color:#000000;direction:ltr;letter-spacing:0px;line-height:120%;opacity:1&quot;&gt;是&lt;br/&gt;&lt;/font&gt;" style="vsdxID=29;edgeStyle=none;startArrow=none;endArrow=classic;startSize=5;endSize=5;strokeColor=#404040;spacingTop=0;spacingBottom=0;spacingLeft=0;spacingRight=0;verticalAlign=middle;html=1;labelBackgroundColor=#ffffff;rounded=0;align=center;exitX=0.5;exitY=1;exitDx=0;exitDy=0;exitPerimeter=0;entryX=0.5;entryY=0;entryDx=0;entryDy=0;entryPerimeter=0;" edge="1" parent="2Ufyp_WOwzEZSYyZZ3k4-153" source="2Ufyp_WOwzEZSYyZZ3k4-77" target="2Ufyp_WOwzEZSYyZZ3k4-84">
          <mxGeometry relative="1" as="geometry">
            <mxPoint x="10" as="offset" />
            <Array as="points" />
          </mxGeometry>
        </mxCell>
        <mxCell id="2Ufyp_WOwzEZSYyZZ3k4-224" style="vsdxID=32;edgeStyle=none;startArrow=none;endArrow=classic;startSize=5;endSize=5;strokeColor=#404040;spacingTop=0;spacingBottom=0;spacingLeft=0;spacingRight=0;verticalAlign=middle;html=1;labelBackgroundColor=#ffffff;rounded=0;exitX=0.5;exitY=1;exitDx=0;exitDy=0;exitPerimeter=0;entryX=0.5;entryY=0;entryDx=0;entryDy=0;entryPerimeter=0;" edge="1" parent="2Ufyp_WOwzEZSYyZZ3k4-153" source="2Ufyp_WOwzEZSYyZZ3k4-84" target="2Ufyp_WOwzEZSYyZZ3k4-86">
          <mxGeometry relative="1" as="geometry">
            <mxPoint x="10" as="offset" />
            <Array as="points" />
          </mxGeometry>
        </mxCell>
        <mxCell id="2Ufyp_WOwzEZSYyZZ3k4-225" style="vsdxID=34;edgeStyle=none;startArrow=none;endArrow=classic;startSize=5;endSize=5;strokeColor=#404040;spacingTop=0;spacingBottom=0;spacingLeft=0;spacingRight=0;verticalAlign=middle;html=1;labelBackgroundColor=#ffffff;rounded=0;exitX=1;exitY=0.5;exitDx=0;exitDy=0;exitPerimeter=0;entryX=0;entryY=0.5;entryDx=0;entryDy=0;entryPerimeter=0;" edge="1" parent="2Ufyp_WOwzEZSYyZZ3k4-153" source="2Ufyp_WOwzEZSYyZZ3k4-86" target="2Ufyp_WOwzEZSYyZZ3k4-88">
          <mxGeometry relative="1" as="geometry">
            <mxPoint as="offset" />
            <Array as="points" />
          </mxGeometry>
        </mxCell>
        <mxCell id="2Ufyp_WOwzEZSYyZZ3k4-239" value="是，全部失败" style="edgeLabel;html=1;align=center;verticalAlign=middle;resizable=0;points=[];" vertex="1" connectable="0" parent="2Ufyp_WOwzEZSYyZZ3k4-225">
          <mxGeometry x="-0.5494" y="-1" relative="1" as="geometry">
            <mxPoint x="28" as="offset" />
          </mxGeometry>
        </mxCell>
        <mxCell id="2Ufyp_WOwzEZSYyZZ3k4-226" style="vsdxID=36;edgeStyle=none;startArrow=none;endArrow=classic;startSize=5;endSize=5;strokeColor=#404040;spacingTop=0;spacingBottom=0;spacingLeft=0;spacingRight=0;verticalAlign=middle;html=1;labelBackgroundColor=#ffffff;rounded=0;exitX=0.5;exitY=1;exitDx=0;exitDy=0;exitPerimeter=0;entryX=0.5;entryY=0;entryDx=0;entryDy=0;entryPerimeter=0;" edge="1" parent="2Ufyp_WOwzEZSYyZZ3k4-153" source="2Ufyp_WOwzEZSYyZZ3k4-86" target="2Ufyp_WOwzEZSYyZZ3k4-89">
          <mxGeometry relative="1" as="geometry">
            <mxPoint x="10" as="offset" />
            <Array as="points" />
          </mxGeometry>
        </mxCell>
        <mxCell id="2Ufyp_WOwzEZSYyZZ3k4-227" style="vsdxID=38;edgeStyle=none;startArrow=none;endArrow=classic;startSize=5;endSize=5;strokeColor=#404040;spacingTop=0;spacingBottom=0;spacingLeft=0;spacingRight=0;verticalAlign=middle;html=1;labelBackgroundColor=#ffffff;rounded=0;exitX=0;exitY=0.5;exitDx=0;exitDy=0;exitPerimeter=0;entryX=0.5;entryY=0;entryDx=0;entryDy=0;entryPerimeter=0;" edge="1" parent="2Ufyp_WOwzEZSYyZZ3k4-153" source="2Ufyp_WOwzEZSYyZZ3k4-84" target="2Ufyp_WOwzEZSYyZZ3k4-90">
          <mxGeometry relative="1" as="geometry">
            <mxPoint as="offset" />
            <Array as="points">
              <mxPoint x="81" y="1056" />
              <mxPoint x="81" y="1396" />
              <mxPoint x="161" y="1396" />
            </Array>
          </mxGeometry>
        </mxCell>
        <mxCell id="2Ufyp_WOwzEZSYyZZ3k4-238" value="是" style="edgeLabel;html=1;align=center;verticalAlign=middle;resizable=0;points=[];" vertex="1" connectable="0" parent="2Ufyp_WOwzEZSYyZZ3k4-227">
          <mxGeometry x="-0.5935" relative="1" as="geometry">
            <mxPoint as="offset" />
          </mxGeometry>
        </mxCell>
        <mxCell id="2Ufyp_WOwzEZSYyZZ3k4-229" style="vsdxID=42;edgeStyle=none;startArrow=none;endArrow=classic;startSize=5;endSize=5;strokeColor=#404040;spacingTop=0;spacingBottom=0;spacingLeft=0;spacingRight=0;verticalAlign=middle;html=1;labelBackgroundColor=#ffffff;rounded=0;exitX=0.5;exitY=1;exitDx=0;exitDy=0;exitPerimeter=0;entryX=0.5;entryY=0;entryDx=0;entryDy=0;entryPerimeter=0;" edge="1" parent="2Ufyp_WOwzEZSYyZZ3k4-153" source="2Ufyp_WOwzEZSYyZZ3k4-90" target="2Ufyp_WOwzEZSYyZZ3k4-91">
          <mxGeometry relative="1" as="geometry">
            <mxPoint x="10" as="offset" />
            <Array as="points" />
          </mxGeometry>
        </mxCell>
      </root>
    </mxGraphModel>
  </diagram>
</mxfile>
